<svg id="Calque_2" data-name="Calque 2" xmlns="http://www.w3.org/2000/svg" xmlns:xlink="http://www.w3.org/1999/xlink" viewBox="0 0 1166.86 765.54"><defs><style>.cls-1,.cls-3{fill:none;}.cls-2{clip-path:url(#clip-path);}.cls-3{stroke:#d6d5c9;stroke-miterlimit:10;stroke-width:3px;}</style><clipPath id="clip-path"><rect class="cls-1" x="57.44" y="156.03" width="186.48" height="201.66"/></clipPath></defs><circle cx="149.5" cy="256.19" r="100.5"/><g class="cls-2"><g id="Groupe_1" data-name="Groupe 1"><path id="Tracé_1" data-name="Tracé 1" class="cls-3" d="M149.17,157.92S62,200.2,59,248.12s90.17,107.62,90.17,107.62,97.11-64.4,93.15-106.68S149.17,157.92,149.17,157.92Z"/><path id="Tracé_2" data-name="Tracé 2" class="cls-3" d="M149.17,157.92S88.44,197.64,96.65,261.27s52.52,94.47,52.52,94.47,52-63.21,53.51-99.16S149.17,157.92,149.17,157.92Z"/><path id="Tracé_3" data-name="Tracé 3" class="cls-3" d="M95.89,192.38s18.6,36,49.32,35.07,51.53-37.58,51.53-37.58"/><path id="Tracé_4" data-name="Tracé 4" class="cls-3" d="M104.57,321.35s20.77-23.05,40.61-24.18,49.3,24.18,49.3,24.18"/><path id="Tracé_5" data-name="Tracé 5" class="cls-3" d="M59,248.12s66.34,9,86.18,8.71,97.14-7.77,97.14-7.77"/></g></g></svg>