<svg xmlns="http://www.w3.org/2000/svg" viewBox="0 0 132.15 48.58"><defs><style>.cls-1,.cls-2{fill:#fff;}.cls-2{opacity:0.5;}</style></defs><g id="Calque_2" data-name="Calque 2"><path class="cls-1" d="M9.8,18.16c0,3.49-.64,6.09-1.93,7.78A6.48,6.48,0,0,1,2.4,28.48a8.91,8.91,0,0,1-1.29-.09A5.3,5.3,0,0,1,0,28.11V25.55a5.08,5.08,0,0,0,2.44.58,3.89,3.89,0,0,0,3.62-1.95,12.18,12.18,0,0,0,1.15-6V0H9.8Z"/><path class="cls-1" d="M17.66,18.46a11.23,11.23,0,0,0,.48,3.3,7.3,7.3,0,0,0,1.35,2.48,5.81,5.81,0,0,0,2.14,1.55,7.15,7.15,0,0,0,2.84.54A10.16,10.16,0,0,0,30.86,24v2.47a11.68,11.68,0,0,1-6.95,2.05,9.19,9.19,0,0,1-3.66-.71,7.64,7.64,0,0,1-2.79-2,9.35,9.35,0,0,1-1.78-3.29A14.77,14.77,0,0,1,15.06,18a12.39,12.39,0,0,1,.68-4.16,10.25,10.25,0,0,1,1.9-3.31,8.68,8.68,0,0,1,2.87-2.19,8.28,8.28,0,0,1,3.63-.79,8.19,8.19,0,0,1,3.42.67,6.65,6.65,0,0,1,2.49,1.93,8.7,8.7,0,0,1,1.53,3,14.36,14.36,0,0,1,.53,4v1.25Zm11.87-2.19a7.61,7.61,0,0,0-1.48-4.84,4.87,4.87,0,0,0-4-1.72,6.07,6.07,0,0,0-2.35.45,5.64,5.64,0,0,0-1.91,1.3,6.81,6.81,0,0,0-1.35,2.07,10.46,10.46,0,0,0-.76,2.74Z"/><path class="cls-1" d="M70.55,28V16.48q0-6.76-4.93-6.77a5.77,5.77,0,0,0-2.42.51,5.92,5.92,0,0,0-1.92,1.44A6.8,6.8,0,0,0,60,13.84a7.81,7.81,0,0,0-.46,2.72V28h-2.5V8h2.5v3.47h.08a7.22,7.22,0,0,1,6.7-3.94,6,6,0,0,1,5,2.13,9.63,9.63,0,0,1,1.72,6.15V28Z"/><path class="cls-1" d="M92.56,28V16.48q0-6.76-4.92-6.77a5.78,5.78,0,0,0-2.43.51,5.92,5.92,0,0,0-1.92,1.44A6.8,6.8,0,0,0,82,13.84a8,8,0,0,0-.46,2.72V28h-2.5V8h2.5v3.47h.08a7.22,7.22,0,0,1,6.7-3.94,6,6,0,0,1,5,2.13,9.57,9.57,0,0,1,1.72,6.15V28Z"/><path class="cls-1" d="M102.27,18.46a11.23,11.23,0,0,0,.48,3.3,7.3,7.3,0,0,0,1.35,2.48,5.81,5.81,0,0,0,2.14,1.55,7.15,7.15,0,0,0,2.84.54A10.18,10.18,0,0,0,115.47,24v2.47a11.7,11.7,0,0,1-7,2.05,9.19,9.19,0,0,1-3.66-.71,7.64,7.64,0,0,1-2.79-2,9.35,9.35,0,0,1-1.78-3.29A14.77,14.77,0,0,1,99.67,18a12.39,12.39,0,0,1,.68-4.16,10.25,10.25,0,0,1,1.9-3.31,8.68,8.68,0,0,1,2.87-2.19,8.89,8.89,0,0,1,7-.12,6.65,6.65,0,0,1,2.49,1.93,8.7,8.7,0,0,1,1.53,3,14.36,14.36,0,0,1,.53,4v1.25Zm11.87-2.19a7.61,7.61,0,0,0-1.48-4.84,4.87,4.87,0,0,0-4-1.72,6,6,0,0,0-2.35.45,5.64,5.64,0,0,0-1.91,1.3,6.81,6.81,0,0,0-1.35,2.07,10.46,10.46,0,0,0-.76,2.74Z"/><path class="cls-1" d="M53.76,42.82,50.28,32.23H36.73l-3.4,10.59H30.07L42.1,7h3L57,42.82ZM44.13,13.27c-.1-.32-.21-.68-.32-1.1a11.26,11.26,0,0,1-.27-1.42h-.09c-.09.53-.19,1-.3,1.42s-.22.78-.32,1.1L37.72,29.21H49.29Z"/><path class="cls-2" d="M63.45,45.24a6.9,6.9,0,0,1-1.56,2.52,3.06,3.06,0,0,1-2.14.82,3.15,3.15,0,0,1-1-.15V47.07a2.85,2.85,0,0,0,.5.14,3,3,0,0,0,.52,0A1.87,1.87,0,0,0,61,46.81a3.52,3.52,0,0,0,.92-1.36l1-2.37L58.41,31.54H60l3.32,9.18c0,.12.09.26.13.42l.12.45h0a3.64,3.64,0,0,0,.11-.39,3.53,3.53,0,0,1,.14-.43l3.52-9.23h1.53Z"/><path class="cls-2" d="M71.79,41.87h7.14v1.26H69.58v-.48l7.28-9.84H70.18V31.54H79.1V32Z"/><path class="cls-2" d="M88.24,43.13V41.07h0a4.23,4.23,0,0,1-1.54,1.72,4.09,4.09,0,0,1-2.22.61,4.52,4.52,0,0,1-1.51-.23,3.23,3.23,0,0,1-1.14-.68,3,3,0,0,1-.72-1,3.49,3.49,0,0,1-.26-1.35,3.36,3.36,0,0,1,1-2.51,5.26,5.26,0,0,1,3-1.21l3.52-.51c0-2.23-.87-3.34-2.6-3.34A5.63,5.63,0,0,0,81.89,34V32.43a4.29,4.29,0,0,1,.82-.47,8.5,8.5,0,0,1,1-.37,7.13,7.13,0,0,1,1-.23,6.38,6.38,0,0,1,1-.09,3.73,3.73,0,0,1,2.92,1.09,4.61,4.61,0,0,1,1,3.24v7.53Zm-3-5.62a8.91,8.91,0,0,0-1.34.28,2.68,2.68,0,0,0-.91.46,1.71,1.71,0,0,0-.54.71,2.92,2.92,0,0,0-.17,1,2.2,2.2,0,0,0,.17.86,2,2,0,0,0,.47.68,2,2,0,0,0,.76.45,3,3,0,0,0,1,.16,3.45,3.45,0,0,0,1.41-.29,3.34,3.34,0,0,0,1.11-.82A3.75,3.75,0,0,0,88,39.81a4.52,4.52,0,0,0,.27-1.58V37.09Z"/><path class="cls-2" d="M98.15,43a3.58,3.58,0,0,1-1.63.37q-2.8,0-2.81-3.24V32.81h-2V31.54h2V28.62l1.45-.47v3.39h3v1.27h-3v7.1a2.9,2.9,0,0,0,.39,1.7,1.52,1.52,0,0,0,1.3.52,2.35,2.35,0,0,0,1.3-.41Z"/><path class="cls-2" d="M105.1,43.4a5.84,5.84,0,0,1-2.31-.43A4.82,4.82,0,0,1,101,41.76a5.17,5.17,0,0,1-1.11-1.89,7.2,7.2,0,0,1-.39-2.43,7.69,7.69,0,0,1,.41-2.59,5.45,5.45,0,0,1,1.16-1.94,5,5,0,0,1,1.82-1.22,6.41,6.41,0,0,1,2.37-.42,5.85,5.85,0,0,1,2.27.42,4.59,4.59,0,0,1,1.71,1.19,5.41,5.41,0,0,1,1.07,1.9,8,8,0,0,1,.38,2.55,7.44,7.44,0,0,1-.4,2.47,5.69,5.69,0,0,1-1.11,1.92A4.88,4.88,0,0,1,107.45,43,5.83,5.83,0,0,1,105.1,43.4Zm.11-10.87a4.36,4.36,0,0,0-1.72.33,3.66,3.66,0,0,0-1.32,1,4.56,4.56,0,0,0-.84,1.54,6.64,6.64,0,0,0-.29,2.07,6.07,6.07,0,0,0,.29,2,4.49,4.49,0,0,0,.83,1.49,3.8,3.8,0,0,0,1.31,1,4.32,4.32,0,0,0,1.72.33,4.4,4.4,0,0,0,1.72-.32,3.48,3.48,0,0,0,1.27-.94,4.17,4.17,0,0,0,.79-1.51,7.48,7.48,0,0,0,.26-2,5.44,5.44,0,0,0-1-3.58A3.66,3.66,0,0,0,105.21,32.53Z"/><path class="cls-2" d="M117.78,43.13H116.4L112,31.54h1.59l3.21,8.83a7,7,0,0,1,.37,1.42h.05a6.46,6.46,0,0,1,.35-1.37l3.31-8.88h1.55Z"/><path class="cls-2" d="M130.7,43.13V41.07h0a4.25,4.25,0,0,1-1.55,1.72,4.06,4.06,0,0,1-2.21.61,4.48,4.48,0,0,1-1.51-.23,3.37,3.37,0,0,1-1.15-.68,3,3,0,0,1-.72-1,3.49,3.49,0,0,1-.25-1.35,3.32,3.32,0,0,1,1-2.51,5.26,5.26,0,0,1,2.94-1.21l3.52-.51c0-2.23-.86-3.34-2.59-3.34A5.67,5.67,0,0,0,124.35,34V32.43a4.62,4.62,0,0,1,.82-.47,9.28,9.28,0,0,1,1-.37,7.26,7.26,0,0,1,1-.23,6.27,6.27,0,0,1,1-.09,3.75,3.75,0,0,1,2.93,1.09,4.65,4.65,0,0,1,1,3.24v7.53Zm-3-5.62a8.75,8.75,0,0,0-1.33.28,2.73,2.73,0,0,0-.92.46,1.69,1.69,0,0,0-.53.71,2.92,2.92,0,0,0-.17,1,2.2,2.2,0,0,0,.16.86,1.91,1.91,0,0,0,.48.68,2,2,0,0,0,.76.45,2.86,2.86,0,0,0,1,.16,3.45,3.45,0,0,0,1.41-.29,3.38,3.38,0,0,0,1.12-.82,3.93,3.93,0,0,0,.74-1.24,4.76,4.76,0,0,0,.26-1.58V37.09Z"/></g></svg>