<svg id="Calque_1" data-name="Calque 1" xmlns="http://www.w3.org/2000/svg" xmlns:xlink="http://www.w3.org/1999/xlink" viewBox="0 0 2042.92 1948.2"><defs><style>.cls-1,.cls-20{fill:none;}.cls-2{opacity:0.17;}.cls-3{clip-path:url(#clip-path);}.cls-4{fill:#d6d5c9;}.cls-5{clip-path:url(#clip-path-2);}.cls-6{clip-path:url(#clip-path-3);}.cls-7{clip-path:url(#clip-path-4);}.cls-8{clip-path:url(#clip-path-5);}.cls-9{clip-path:url(#clip-path-6);}.cls-10{opacity:0.08;}.cls-11{clip-path:url(#clip-path-7);}.cls-12{clip-path:url(#clip-path-8);}.cls-13{clip-path:url(#clip-path-9);}.cls-14{clip-path:url(#clip-path-10);}.cls-15{clip-path:url(#clip-path-11);}.cls-16{clip-path:url(#clip-path-12);}.cls-17{clip-path:url(#clip-path-13);}.cls-18{clip-path:url(#clip-path-14);}.cls-19{clip-path:url(#clip-path-15);}.cls-20{stroke:#d6d5c9;stroke-miterlimit:10;stroke-width:3px;}</style><clipPath id="clip-path"><rect class="cls-1" y="115" width="154.53" height="178.32"/></clipPath><clipPath id="clip-path-2"><rect class="cls-1" x="103" width="154.53" height="178.32"/></clipPath><clipPath id="clip-path-3"><rect class="cls-1" x="205.31" y="119" width="154.53" height="178.32"/></clipPath><clipPath id="clip-path-4"><rect class="cls-1" x="220" y="347.18" width="154.53" height="178.32"/></clipPath><clipPath id="clip-path-5"><rect class="cls-1" x="1888.39" y="548.18" width="154.53" height="178.32"/></clipPath><clipPath id="clip-path-6"><rect class="cls-1" x="1785.39" y="663.18" width="154.53" height="178.32"/></clipPath><clipPath id="clip-path-7"><rect class="cls-1" x="1435.69" y="663.18" width="154.53" height="178.32"/></clipPath><clipPath id="clip-path-8"><rect class="cls-1" x="1577.77" y="412.32" width="154.53" height="178.32"/></clipPath><clipPath id="clip-path-9"><rect class="cls-1" x="1680.77" y="297.32" width="154.53" height="178.32"/></clipPath><clipPath id="clip-path-10"><rect class="cls-1" x="1783.08" y="416.32" width="154.53" height="178.32"/></clipPath><clipPath id="clip-path-11"><rect class="cls-1" x="0.34" y="594.64" width="154.53" height="178.32"/></clipPath><clipPath id="clip-path-12"><rect class="cls-1" x="220" y="1068.18" width="154.53" height="178.32"/></clipPath><clipPath id="clip-path-13"><rect class="cls-1" x="117" y="1183.18" width="154.53" height="178.32"/></clipPath><clipPath id="clip-path-14"><rect class="cls-1" x="114.69" y="936.32" width="154.53" height="178.32"/></clipPath><clipPath id="clip-path-15"><rect class="cls-1" x="17" y="1786.84" width="149.22" height="161.36"/></clipPath></defs><g id="Groupe_26" data-name="Groupe 26" class="cls-2"><g class="cls-3"><g id="Groupe_17" data-name="Groupe 17"><path id="Tracé_6" data-name="Tracé 6" class="cls-4" d="M56.55,144.15c-5.68-9.66-1.32-22.71,8.78-25.84a46.44,46.44,0,0,1,10.26-1.85,28.25,28.25,0,0,1,13.16,1.71c8.13,3.4,12.08,13.52,8.9,22.39L77.22,189.82Z"/><path id="Tracé_7" data-name="Tracé 7" class="cls-4" d="M56.55,144.15c-5.68-9.66-1.32-22.71,8.78-25.84a46.44,46.44,0,0,1,10.26-1.85,28.25,28.25,0,0,1,13.16,1.71c8.13,3.4,12.08,13.52,8.9,22.39L77.22,189.82Z"/><path id="Tracé_8" data-name="Tracé 8" class="cls-4" d="M127.69,183.37c8.78-6.32,20.74-1.67,23.69,9.36a59.92,59.92,0,0,1,1.79,11.21,36.51,36.51,0,0,1-1.44,14.43c-3,8.94-12.23,13.35-20.37,10l-45.17-21.9Z"/><path id="Tracé_9" data-name="Tracé 9" class="cls-4" d="M127.69,183.37c8.78-6.32,20.74-1.67,23.69,9.36a59.92,59.92,0,0,1,1.79,11.21,36.51,36.51,0,0,1-1.44,14.43c-3,8.94-12.23,13.35-20.37,10l-45.17-21.9Z"/><path id="Tracé_10" data-name="Tracé 10" class="cls-4" d="M26.34,228.57c-8.9,6.1-20.76,1.15-23.49-9.95A60.09,60.09,0,0,1,1.3,207.37,36.6,36.6,0,0,1,3,193c3.21-8.86,12.5-13,20.56-9.45l44.72,23Z"/><path id="Tracé_11" data-name="Tracé 11" class="cls-4" d="M26.34,228.57c-8.9,6.1-20.76,1.15-23.49-9.95A60.09,60.09,0,0,1,1.3,207.37,36.6,36.6,0,0,1,3,193c3.21-8.86,12.5-13,20.56-9.45l44.72,23Z"/><path id="Tracé_12" data-name="Tracé 12" class="cls-4" d="M98.59,264.52c5.55,9.75,1,22.74-9.12,25.7a46.46,46.46,0,0,1-10.28,1.68A28.35,28.35,0,0,1,66.05,290c-8.09-3.53-11.9-13.71-8.6-22.54l21.09-48.92Z"/><path id="Tracé_13" data-name="Tracé 13" class="cls-4" d="M98.59,264.52c5.55,9.75,1,22.74-9.12,25.7a46.46,46.46,0,0,1-10.28,1.68A28.35,28.35,0,0,1,66.05,290c-8.09-3.53-11.9-13.71-8.6-22.54l21.09-48.92Z"/><path id="Tracé_14" data-name="Tracé 14" class="cls-4" d="M32.68,179c-7.64-1.55-12.88-10.4-10.3-17.6a33.28,33.28,0,0,1,3.34-6.67,18.67,18.67,0,0,1,6.5-6.54c5.29-2.9,12.45-.15,15.92,6l18.07,35.63Z"/><path id="Tracé_15" data-name="Tracé 15" class="cls-4" d="M32.68,179c-7.64-1.55-12.88-10.4-10.3-17.6a33.28,33.28,0,0,1,3.34-6.67,18.67,18.67,0,0,1,6.5-6.54c5.29-2.9,12.45-.15,15.92,6l18.07,35.63Z"/><path id="Tracé_16" data-name="Tracé 16" class="cls-4" d="M104.17,156.58c2.81-7.94,11.72-11.93,17.71-7.82a29.66,29.66,0,0,1,5.36,4.83,19.89,19.89,0,0,1,4.68,8.21c1.61,6.23-2.18,13.42-8.33,16L88.26,190.65Z"/><path id="Tracé_17" data-name="Tracé 17" class="cls-4" d="M104.17,156.58c2.81-7.94,11.72-11.93,17.71-7.82a29.66,29.66,0,0,1,5.36,4.83,19.89,19.89,0,0,1,4.68,8.21c1.61,6.23-2.18,13.42-8.33,16L88.26,190.65Z"/><path id="Tracé_18" data-name="Tracé 18" class="cls-4" d="M52.12,257.25c-2.61,8-11.42,12.29-17.5,8.35a29.78,29.78,0,0,1-5.49-4.66,19.82,19.82,0,0,1-4.87-8.07c-1.78-6.17,1.83-13.48,7.92-16.26l35-13.89Z"/><path id="Tracé_19" data-name="Tracé 19" class="cls-4" d="M52.12,257.25c-2.61,8-11.42,12.29-17.5,8.35a29.78,29.78,0,0,1-5.49-4.66,19.82,19.82,0,0,1-4.87-8.07c-1.78-6.17,1.83-13.48,7.92-16.26l35-13.89Z"/><path id="Tracé_20" data-name="Tracé 20" class="cls-4" d="M124.31,234.28c7.64,1.59,12.84,10.46,10.24,17.65a33,33,0,0,1-3.37,6.65,18.54,18.54,0,0,1-6.53,6.52c-5.3,2.87-12.45.09-15.89-6.07L90.84,223.32Z"/><path id="Tracé_21" data-name="Tracé 21" class="cls-4" d="M124.31,234.28c7.64,1.59,12.84,10.46,10.24,17.65a33,33,0,0,1-3.37,6.65,18.54,18.54,0,0,1-6.53,6.52c-5.3,2.87-12.45.09-15.89-6.07L90.84,223.32Z"/></g></g></g><g id="Groupe_27" data-name="Groupe 27" class="cls-2"><g class="cls-5"><g id="Groupe_17-2" data-name="Groupe 17-2"><path id="Tracé_6-2" data-name="Tracé 6-2" class="cls-4" d="M159.55,29.15c-5.68-9.66-1.32-22.71,8.78-25.84a46.44,46.44,0,0,1,10.26-1.85,28.25,28.25,0,0,1,13.16,1.71c8.13,3.4,12.08,13.52,8.9,22.39L180.22,74.82Z"/><path id="Tracé_7-2" data-name="Tracé 7-2" class="cls-4" d="M159.55,29.15c-5.68-9.66-1.32-22.71,8.78-25.84a46.44,46.44,0,0,1,10.26-1.85,28.25,28.25,0,0,1,13.16,1.71c8.13,3.4,12.08,13.52,8.9,22.39L180.22,74.82Z"/><path id="Tracé_8-2" data-name="Tracé 8-2" class="cls-4" d="M230.69,68.37c8.78-6.32,20.74-1.67,23.69,9.36a59.92,59.92,0,0,1,1.79,11.21,36.51,36.51,0,0,1-1.44,14.43c-3,8.94-12.23,13.35-20.37,10l-45.17-21.9Z"/><path id="Tracé_9-2" data-name="Tracé 9-2" class="cls-4" d="M230.69,68.37c8.78-6.32,20.74-1.67,23.69,9.36a59.92,59.92,0,0,1,1.79,11.21,36.51,36.51,0,0,1-1.44,14.43c-3,8.94-12.23,13.35-20.37,10l-45.17-21.9Z"/><path id="Tracé_10-2" data-name="Tracé 10-2" class="cls-4" d="M129.34,113.57c-8.9,6.1-20.76,1.15-23.49-9.95a60.09,60.09,0,0,1-1.55-11.25A36.6,36.6,0,0,1,106,78c3.21-8.86,12.5-13,20.56-9.45l44.72,23Z"/><path id="Tracé_11-2" data-name="Tracé 11-2" class="cls-4" d="M129.34,113.57c-8.9,6.1-20.76,1.15-23.49-9.95a60.09,60.09,0,0,1-1.55-11.25A36.6,36.6,0,0,1,106,78c3.21-8.86,12.5-13,20.56-9.45l44.72,23Z"/><path id="Tracé_12-2" data-name="Tracé 12-2" class="cls-4" d="M201.59,149.52c5.55,9.75,1,22.74-9.12,25.7a46.46,46.46,0,0,1-10.28,1.68A28.35,28.35,0,0,1,169.05,175c-8.09-3.53-11.9-13.71-8.6-22.54l21.09-48.92Z"/><path id="Tracé_13-2" data-name="Tracé 13-2" class="cls-4" d="M201.59,149.52c5.55,9.75,1,22.74-9.12,25.7a46.46,46.46,0,0,1-10.28,1.68A28.35,28.35,0,0,1,169.05,175c-8.09-3.53-11.9-13.71-8.6-22.54l21.09-48.92Z"/><path id="Tracé_14-2" data-name="Tracé 14-2" class="cls-4" d="M135.68,64c-7.64-1.55-12.88-10.4-10.3-17.6a33.28,33.28,0,0,1,3.34-6.67,18.67,18.67,0,0,1,6.5-6.54c5.29-2.9,12.45-.15,15.92,6l18.07,35.63Z"/><path id="Tracé_15-2" data-name="Tracé 15-2" class="cls-4" d="M135.68,64c-7.64-1.55-12.88-10.4-10.3-17.6a33.28,33.28,0,0,1,3.34-6.67,18.67,18.67,0,0,1,6.5-6.54c5.29-2.9,12.45-.15,15.92,6l18.07,35.63Z"/><path id="Tracé_16-2" data-name="Tracé 16-2" class="cls-4" d="M207.17,41.58c2.81-7.94,11.72-11.93,17.71-7.82a29.66,29.66,0,0,1,5.36,4.83,19.89,19.89,0,0,1,4.68,8.21c1.61,6.23-2.18,13.42-8.33,16L191.26,75.65Z"/><path id="Tracé_17-2" data-name="Tracé 17-2" class="cls-4" d="M207.17,41.58c2.81-7.94,11.72-11.93,17.71-7.82a29.66,29.66,0,0,1,5.36,4.83,19.89,19.89,0,0,1,4.68,8.21c1.61,6.23-2.18,13.42-8.33,16L191.26,75.65Z"/><path id="Tracé_18-2" data-name="Tracé 18-2" class="cls-4" d="M155.12,142.25c-2.61,8-11.42,12.29-17.5,8.35a29.78,29.78,0,0,1-5.49-4.66,19.82,19.82,0,0,1-4.87-8.07c-1.78-6.17,1.83-13.48,7.92-16.26l35-13.89Z"/><path id="Tracé_19-2" data-name="Tracé 19-2" class="cls-4" d="M155.12,142.25c-2.61,8-11.42,12.29-17.5,8.35a29.78,29.78,0,0,1-5.49-4.66,19.82,19.82,0,0,1-4.87-8.07c-1.78-6.17,1.83-13.48,7.92-16.26l35-13.89Z"/><path id="Tracé_20-2" data-name="Tracé 20-2" class="cls-4" d="M227.31,119.28c7.64,1.59,12.84,10.46,10.24,17.65a33,33,0,0,1-3.37,6.65,18.54,18.54,0,0,1-6.53,6.52c-5.3,2.87-12.45.09-15.89-6.07l-17.92-35.71Z"/><path id="Tracé_21-2" data-name="Tracé 21-2" class="cls-4" d="M227.31,119.28c7.64,1.59,12.84,10.46,10.24,17.65a33,33,0,0,1-3.37,6.65,18.54,18.54,0,0,1-6.53,6.52c-5.3,2.87-12.45.09-15.89-6.07l-17.92-35.71Z"/></g></g></g><g id="Groupe_28" data-name="Groupe 28" class="cls-2"><g class="cls-6"><g id="Groupe_17-3" data-name="Groupe 17-3"><path id="Tracé_6-3" data-name="Tracé 6-3" class="cls-4" d="M261.86,148.15c-5.68-9.66-1.32-22.71,8.78-25.84a46.44,46.44,0,0,1,10.26-1.85,28.25,28.25,0,0,1,13.16,1.71c8.13,3.4,12.08,13.52,8.9,22.39l-20.43,49.26Z"/><path id="Tracé_7-3" data-name="Tracé 7-3" class="cls-4" d="M261.86,148.15c-5.68-9.66-1.32-22.71,8.78-25.84a46.44,46.44,0,0,1,10.26-1.85,28.25,28.25,0,0,1,13.16,1.71c8.13,3.4,12.08,13.52,8.9,22.39l-20.43,49.26Z"/><path id="Tracé_8-3" data-name="Tracé 8-3" class="cls-4" d="M333,187.37c8.78-6.32,20.74-1.67,23.69,9.36a59.92,59.92,0,0,1,1.79,11.21A36.51,36.51,0,0,1,357,222.37c-3,8.94-12.23,13.35-20.37,10l-45.17-21.9Z"/><path id="Tracé_9-3" data-name="Tracé 9-3" class="cls-4" d="M333,187.37c8.78-6.32,20.74-1.67,23.69,9.36a59.92,59.92,0,0,1,1.79,11.21A36.51,36.51,0,0,1,357,222.37c-3,8.94-12.23,13.35-20.37,10l-45.17-21.9Z"/><path id="Tracé_10-3" data-name="Tracé 10-3" class="cls-4" d="M231.65,232.57c-8.9,6.1-20.76,1.15-23.49-9.95a60.09,60.09,0,0,1-1.55-11.25A36.6,36.6,0,0,1,208.34,197c3.21-8.86,12.5-13,20.56-9.45l44.72,23Z"/><path id="Tracé_11-3" data-name="Tracé 11-3" class="cls-4" d="M231.65,232.57c-8.9,6.1-20.76,1.15-23.49-9.95a60.09,60.09,0,0,1-1.55-11.25A36.6,36.6,0,0,1,208.34,197c3.21-8.86,12.5-13,20.56-9.45l44.72,23Z"/><path id="Tracé_12-3" data-name="Tracé 12-3" class="cls-4" d="M303.9,268.52c5.55,9.75,1,22.74-9.12,25.7a46.46,46.46,0,0,1-10.28,1.68A28.35,28.35,0,0,1,271.36,294c-8.09-3.53-11.9-13.71-8.6-22.54l21.09-48.92Z"/><path id="Tracé_13-3" data-name="Tracé 13-3" class="cls-4" d="M303.9,268.52c5.55,9.75,1,22.74-9.12,25.7a46.46,46.46,0,0,1-10.28,1.68A28.35,28.35,0,0,1,271.36,294c-8.09-3.53-11.9-13.71-8.6-22.54l21.09-48.92Z"/><path id="Tracé_14-3" data-name="Tracé 14-3" class="cls-4" d="M238,183c-7.64-1.55-12.88-10.4-10.3-17.6A33.28,33.28,0,0,1,231,158.7a18.67,18.67,0,0,1,6.5-6.54c5.29-2.9,12.45-.15,15.92,6l18.06,35.63Z"/><path id="Tracé_15-3" data-name="Tracé 15-3" class="cls-4" d="M238,183c-7.64-1.55-12.88-10.4-10.3-17.6A33.28,33.28,0,0,1,231,158.7a18.67,18.67,0,0,1,6.5-6.54c5.29-2.9,12.45-.15,15.92,6l18.06,35.63Z"/><path id="Tracé_16-3" data-name="Tracé 16-3" class="cls-4" d="M309.48,160.58c2.81-7.94,11.72-11.93,17.71-7.82a29.66,29.66,0,0,1,5.36,4.83,19.89,19.89,0,0,1,4.68,8.21c1.61,6.23-2.18,13.42-8.33,16l-35.33,12.83Z"/><path id="Tracé_17-3" data-name="Tracé 17-3" class="cls-4" d="M309.48,160.58c2.81-7.94,11.72-11.93,17.71-7.82a29.66,29.66,0,0,1,5.36,4.83,19.89,19.89,0,0,1,4.68,8.21c1.61,6.23-2.18,13.42-8.33,16l-35.33,12.83Z"/><path id="Tracé_18-3" data-name="Tracé 18-3" class="cls-4" d="M257.43,261.25c-2.61,8-11.42,12.29-17.5,8.35a29.78,29.78,0,0,1-5.49-4.66,19.82,19.82,0,0,1-4.87-8.07c-1.78-6.17,1.83-13.48,7.92-16.26l35-13.89Z"/><path id="Tracé_19-3" data-name="Tracé 19-3" class="cls-4" d="M257.43,261.25c-2.61,8-11.42,12.29-17.5,8.35a29.78,29.78,0,0,1-5.49-4.66,19.82,19.82,0,0,1-4.87-8.07c-1.78-6.17,1.83-13.48,7.92-16.26l35-13.89Z"/><path id="Tracé_20-3" data-name="Tracé 20-3" class="cls-4" d="M329.62,238.28c7.64,1.59,12.84,10.46,10.24,17.65a33,33,0,0,1-3.37,6.65A18.54,18.54,0,0,1,330,269.1c-5.3,2.87-12.45.09-15.89-6.07l-17.92-35.71Z"/><path id="Tracé_21-3" data-name="Tracé 21-3" class="cls-4" d="M329.62,238.28c7.64,1.59,12.84,10.46,10.24,17.65a33,33,0,0,1-3.37,6.65A18.54,18.54,0,0,1,330,269.1c-5.3,2.87-12.45.09-15.89-6.07l-17.92-35.71Z"/></g></g></g><g id="Groupe_29" data-name="Groupe 29" class="cls-2"><g class="cls-7"><g id="Groupe_17-4" data-name="Groupe 17-4"><path id="Tracé_6-4" data-name="Tracé 6-4" class="cls-4" d="M276.55,376.34c-5.68-9.67-1.32-22.72,8.78-25.85a46.44,46.44,0,0,1,10.26-1.85,28.25,28.25,0,0,1,13.16,1.71c8.13,3.4,12.08,13.52,8.9,22.39L297.22,422Z"/><path id="Tracé_7-4" data-name="Tracé 7-4" class="cls-4" d="M276.55,376.34c-5.68-9.67-1.32-22.72,8.78-25.85a46.44,46.44,0,0,1,10.26-1.85,28.25,28.25,0,0,1,13.16,1.71c8.13,3.4,12.08,13.52,8.9,22.39L297.22,422Z"/><path id="Tracé_8-4" data-name="Tracé 8-4" class="cls-4" d="M347.69,415.55c8.78-6.32,20.74-1.67,23.69,9.36a59.92,59.92,0,0,1,1.79,11.21,36.51,36.51,0,0,1-1.44,14.43c-3,8.94-12.23,13.35-20.37,10l-45.17-21.9Z"/><path id="Tracé_9-4" data-name="Tracé 9-4" class="cls-4" d="M347.69,415.55c8.78-6.32,20.74-1.67,23.69,9.36a59.92,59.92,0,0,1,1.79,11.21,36.51,36.51,0,0,1-1.44,14.43c-3,8.94-12.23,13.35-20.37,10l-45.17-21.9Z"/><path id="Tracé_10-4" data-name="Tracé 10-4" class="cls-4" d="M246.34,460.75c-8.9,6.1-20.76,1.15-23.49-9.94a60.31,60.31,0,0,1-1.55-11.26A36.52,36.52,0,0,1,223,425.17c3.21-8.87,12.5-13.06,20.56-9.46l44.72,23Z"/><path id="Tracé_11-4" data-name="Tracé 11-4" class="cls-4" d="M246.34,460.75c-8.9,6.1-20.76,1.15-23.49-9.94a60.31,60.31,0,0,1-1.55-11.26A36.52,36.52,0,0,1,223,425.17c3.21-8.87,12.5-13.06,20.56-9.46l44.72,23Z"/><path id="Tracé_12-4" data-name="Tracé 12-4" class="cls-4" d="M318.59,496.7c5.55,9.75,1,22.74-9.12,25.7a46.46,46.46,0,0,1-10.28,1.68,28.35,28.35,0,0,1-13.14-1.92c-8.09-3.53-11.9-13.71-8.6-22.54l21.09-48.92Z"/><path id="Tracé_13-4" data-name="Tracé 13-4" class="cls-4" d="M318.59,496.7c5.55,9.75,1,22.74-9.12,25.7a46.46,46.46,0,0,1-10.28,1.68,28.35,28.35,0,0,1-13.14-1.92c-8.09-3.53-11.9-13.71-8.6-22.54l21.09-48.92Z"/><path id="Tracé_14-4" data-name="Tracé 14-4" class="cls-4" d="M252.68,411.15c-7.64-1.55-12.88-10.4-10.3-17.6a33.28,33.28,0,0,1,3.34-6.67,18.67,18.67,0,0,1,6.5-6.54c5.29-2.9,12.45-.15,15.92,6L286.21,422Z"/><path id="Tracé_15-4" data-name="Tracé 15-4" class="cls-4" d="M252.68,411.15c-7.64-1.55-12.88-10.4-10.3-17.6a33.28,33.28,0,0,1,3.34-6.67,18.67,18.67,0,0,1,6.5-6.54c5.29-2.9,12.45-.15,15.92,6L286.21,422Z"/><path id="Tracé_16-4" data-name="Tracé 16-4" class="cls-4" d="M324.17,388.76c2.81-7.94,11.72-11.93,17.71-7.82a29.66,29.66,0,0,1,5.36,4.83,19.89,19.89,0,0,1,4.68,8.21c1.61,6.23-2.18,13.42-8.33,16l-35.33,12.83Z"/><path id="Tracé_17-4" data-name="Tracé 17-4" class="cls-4" d="M324.17,388.76c2.81-7.94,11.72-11.93,17.71-7.82a29.66,29.66,0,0,1,5.36,4.83,19.89,19.89,0,0,1,4.68,8.21c1.61,6.23-2.18,13.42-8.33,16l-35.33,12.83Z"/><path id="Tracé_18-4" data-name="Tracé 18-4" class="cls-4" d="M272.12,489.43c-2.61,8-11.42,12.29-17.5,8.36a30.23,30.23,0,0,1-5.49-4.67,19.78,19.78,0,0,1-4.87-8.06c-1.78-6.18,1.83-13.49,7.92-16.26l35-13.9Z"/><path id="Tracé_19-4" data-name="Tracé 19-4" class="cls-4" d="M272.12,489.43c-2.61,8-11.42,12.29-17.5,8.36a30.23,30.23,0,0,1-5.49-4.67,19.78,19.78,0,0,1-4.87-8.06c-1.78-6.18,1.83-13.49,7.92-16.26l35-13.9Z"/><path id="Tracé_20-4" data-name="Tracé 20-4" class="cls-4" d="M344.31,466.46c7.64,1.59,12.84,10.46,10.24,17.66a33.52,33.52,0,0,1-3.37,6.65,18.59,18.59,0,0,1-6.53,6.51c-5.3,2.87-12.45.09-15.89-6.07L310.84,455.5Z"/><path id="Tracé_21-4" data-name="Tracé 21-4" class="cls-4" d="M344.31,466.46c7.64,1.59,12.84,10.46,10.24,17.66a33.52,33.52,0,0,1-3.37,6.65,18.59,18.59,0,0,1-6.53,6.51c-5.3,2.87-12.45.09-15.89-6.07L310.84,455.5Z"/></g></g></g><g id="Groupe_32" data-name="Groupe 32" class="cls-2"><g class="cls-8"><g id="Groupe_17-5" data-name="Groupe 17-5"><path id="Tracé_6-5" data-name="Tracé 6-5" class="cls-4" d="M1986.37,697.35c5.68,9.66,1.32,22.71-8.78,25.84a46.44,46.44,0,0,1-10.26,1.85,28.25,28.25,0,0,1-13.16-1.71c-8.13-3.4-12.08-13.52-8.9-22.39l20.43-49.26Z"/><path id="Tracé_7-5" data-name="Tracé 7-5" class="cls-4" d="M1986.37,697.35c5.68,9.66,1.32,22.71-8.78,25.84a46.44,46.44,0,0,1-10.26,1.85,28.25,28.25,0,0,1-13.16-1.71c-8.13-3.4-12.08-13.52-8.9-22.39l20.43-49.26Z"/><path id="Tracé_8-5" data-name="Tracé 8-5" class="cls-4" d="M1915.23,658.13c-8.78,6.32-20.74,1.67-23.69-9.36a59.92,59.92,0,0,1-1.79-11.21,36.51,36.51,0,0,1,1.44-14.43c3-8.94,12.23-13.35,20.37-10l45.17,21.9Z"/><path id="Tracé_9-5" data-name="Tracé 9-5" class="cls-4" d="M1915.23,658.13c-8.78,6.32-20.74,1.67-23.69-9.36a59.92,59.92,0,0,1-1.79-11.21,36.51,36.51,0,0,1,1.44-14.43c3-8.94,12.23-13.35,20.37-10l45.17,21.9Z"/><path id="Tracé_10-5" data-name="Tracé 10-5" class="cls-4" d="M2016.58,612.93c8.9-6.1,20.76-1.15,23.49,10a60.09,60.09,0,0,1,1.55,11.25,36.6,36.6,0,0,1-1.73,14.39c-3.21,8.86-12.5,13.05-20.56,9.45l-44.72-23Z"/><path id="Tracé_11-5" data-name="Tracé 11-5" class="cls-4" d="M2016.58,612.93c8.9-6.1,20.76-1.15,23.49,10a60.09,60.09,0,0,1,1.55,11.25,36.6,36.6,0,0,1-1.73,14.39c-3.21,8.86-12.5,13.05-20.56,9.45l-44.72-23Z"/><path id="Tracé_12-5" data-name="Tracé 12-5" class="cls-4" d="M1944.33,577c-5.55-9.75-1-22.74,9.12-25.7a46.46,46.46,0,0,1,10.28-1.68,28.35,28.35,0,0,1,13.14,1.92c8.09,3.53,11.9,13.71,8.6,22.54L1964.38,623Z"/><path id="Tracé_13-5" data-name="Tracé 13-5" class="cls-4" d="M1944.33,577c-5.55-9.75-1-22.74,9.12-25.7a46.46,46.46,0,0,1,10.28-1.68,28.35,28.35,0,0,1,13.14,1.92c8.09,3.53,11.9,13.71,8.6,22.54L1964.38,623Z"/><path id="Tracé_14-5" data-name="Tracé 14-5" class="cls-4" d="M2010.24,662.53c7.64,1.55,12.88,10.4,10.3,17.6a33.28,33.28,0,0,1-3.34,6.67,18.59,18.59,0,0,1-6.5,6.54c-5.29,2.9-12.45.15-15.92-6l-18.06-35.63Z"/><path id="Tracé_15-5" data-name="Tracé 15-5" class="cls-4" d="M2010.24,662.53c7.64,1.55,12.88,10.4,10.3,17.6a33.28,33.28,0,0,1-3.34,6.67,18.59,18.59,0,0,1-6.5,6.54c-5.29,2.9-12.45.15-15.92-6l-18.06-35.63Z"/><path id="Tracé_16-5" data-name="Tracé 16-5" class="cls-4" d="M1938.75,684.92c-2.81,7.94-11.72,11.93-17.71,7.82a29.66,29.66,0,0,1-5.36-4.83,19.76,19.76,0,0,1-4.67-8.21c-1.62-6.23,2.17-13.42,8.32-16l35.33-12.83Z"/><path id="Tracé_17-5" data-name="Tracé 17-5" class="cls-4" d="M1938.75,684.92c-2.81,7.94-11.72,11.93-17.71,7.82a29.66,29.66,0,0,1-5.36-4.83,19.76,19.76,0,0,1-4.67-8.21c-1.62-6.23,2.17-13.42,8.32-16l35.33-12.83Z"/><path id="Tracé_18-5" data-name="Tracé 18-5" class="cls-4" d="M1990.8,584.25c2.61-8,11.42-12.29,17.5-8.35a29.78,29.78,0,0,1,5.49,4.66,19.82,19.82,0,0,1,4.87,8.07c1.78,6.17-1.83,13.48-7.92,16.26l-35,13.89Z"/><path id="Tracé_19-5" data-name="Tracé 19-5" class="cls-4" d="M1990.8,584.25c2.61-8,11.42-12.29,17.5-8.35a29.78,29.78,0,0,1,5.49,4.66,19.82,19.82,0,0,1,4.87,8.07c1.78,6.17-1.83,13.48-7.92,16.26l-35,13.89Z"/><path id="Tracé_20-5" data-name="Tracé 20-5" class="cls-4" d="M1918.61,607.22c-7.64-1.59-12.84-10.46-10.24-17.65a33,33,0,0,1,3.37-6.65,18.54,18.54,0,0,1,6.53-6.52c5.3-2.87,12.45-.09,15.89,6.07l17.92,35.71Z"/><path id="Tracé_21-5" data-name="Tracé 21-5" class="cls-4" d="M1918.61,607.22c-7.64-1.59-12.84-10.46-10.24-17.65a33,33,0,0,1,3.37-6.65,18.54,18.54,0,0,1,6.53-6.52c5.3-2.87,12.45-.09,15.89,6.07l17.92,35.71Z"/></g></g></g><g id="Groupe_33" data-name="Groupe 33" class="cls-2"><g class="cls-9"><g id="Groupe_17-6" data-name="Groupe 17-6"><path id="Tracé_6-6" data-name="Tracé 6-6" class="cls-4" d="M1883.37,812.35c5.68,9.66,1.32,22.71-8.78,25.84a46.44,46.44,0,0,1-10.26,1.85,28.25,28.25,0,0,1-13.16-1.71c-8.13-3.4-12.08-13.52-8.9-22.39l20.43-49.26Z"/><path id="Tracé_7-6" data-name="Tracé 7-6" class="cls-4" d="M1883.37,812.35c5.68,9.66,1.32,22.71-8.78,25.84a46.44,46.44,0,0,1-10.26,1.85,28.25,28.25,0,0,1-13.16-1.71c-8.13-3.4-12.08-13.52-8.9-22.39l20.43-49.26Z"/><path id="Tracé_8-6" data-name="Tracé 8-6" class="cls-4" d="M1812.23,773.13c-8.78,6.32-20.74,1.67-23.69-9.36a59.92,59.92,0,0,1-1.79-11.21,36.51,36.51,0,0,1,1.44-14.43c3-8.94,12.23-13.35,20.37-10l45.17,21.9Z"/><path id="Tracé_9-6" data-name="Tracé 9-6" class="cls-4" d="M1812.23,773.13c-8.78,6.32-20.74,1.67-23.69-9.36a59.92,59.92,0,0,1-1.79-11.21,36.51,36.51,0,0,1,1.44-14.43c3-8.94,12.23-13.35,20.37-10l45.17,21.9Z"/><path id="Tracé_10-6" data-name="Tracé 10-6" class="cls-4" d="M1913.58,727.93c8.9-6.1,20.76-1.15,23.49,10a60.09,60.09,0,0,1,1.55,11.25,36.6,36.6,0,0,1-1.73,14.39c-3.21,8.86-12.5,13.05-20.56,9.45l-44.72-23Z"/><path id="Tracé_11-6" data-name="Tracé 11-6" class="cls-4" d="M1913.58,727.93c8.9-6.1,20.76-1.15,23.49,10a60.09,60.09,0,0,1,1.55,11.25,36.6,36.6,0,0,1-1.73,14.39c-3.21,8.86-12.5,13.05-20.56,9.45l-44.72-23Z"/><path id="Tracé_12-6" data-name="Tracé 12-6" class="cls-4" d="M1841.33,692c-5.55-9.75-1-22.74,9.12-25.7a46.46,46.46,0,0,1,10.28-1.68,28.35,28.35,0,0,1,13.14,1.92c8.09,3.53,11.9,13.71,8.6,22.54L1861.38,738Z"/><path id="Tracé_13-6" data-name="Tracé 13-6" class="cls-4" d="M1841.33,692c-5.55-9.75-1-22.74,9.12-25.7a46.46,46.46,0,0,1,10.28-1.68,28.35,28.35,0,0,1,13.14,1.92c8.09,3.53,11.9,13.71,8.6,22.54L1861.38,738Z"/><path id="Tracé_14-6" data-name="Tracé 14-6" class="cls-4" d="M1907.24,777.53c7.64,1.55,12.88,10.4,10.3,17.6a33.28,33.28,0,0,1-3.34,6.67,18.59,18.59,0,0,1-6.5,6.54c-5.29,2.9-12.45.15-15.92-6l-18.06-35.63Z"/><path id="Tracé_15-6" data-name="Tracé 15-6" class="cls-4" d="M1907.24,777.53c7.64,1.55,12.88,10.4,10.3,17.6a33.28,33.28,0,0,1-3.34,6.67,18.59,18.59,0,0,1-6.5,6.54c-5.29,2.9-12.45.15-15.92-6l-18.06-35.63Z"/><path id="Tracé_16-6" data-name="Tracé 16-6" class="cls-4" d="M1835.75,799.92c-2.81,7.94-11.72,11.93-17.71,7.82a29.66,29.66,0,0,1-5.36-4.83,19.76,19.76,0,0,1-4.67-8.21c-1.62-6.23,2.17-13.42,8.32-16l35.33-12.83Z"/><path id="Tracé_17-6" data-name="Tracé 17-6" class="cls-4" d="M1835.75,799.92c-2.81,7.94-11.72,11.93-17.71,7.82a29.66,29.66,0,0,1-5.36-4.83,19.76,19.76,0,0,1-4.67-8.21c-1.62-6.23,2.17-13.42,8.32-16l35.33-12.83Z"/><path id="Tracé_18-6" data-name="Tracé 18-6" class="cls-4" d="M1887.8,699.25c2.61-8,11.42-12.29,17.5-8.35a29.78,29.78,0,0,1,5.49,4.66,19.82,19.82,0,0,1,4.87,8.07c1.78,6.17-1.83,13.48-7.92,16.26l-35,13.89Z"/><path id="Tracé_19-6" data-name="Tracé 19-6" class="cls-4" d="M1887.8,699.25c2.61-8,11.42-12.29,17.5-8.35a29.78,29.78,0,0,1,5.49,4.66,19.82,19.82,0,0,1,4.87,8.07c1.78,6.17-1.83,13.48-7.92,16.26l-35,13.89Z"/><path id="Tracé_20-6" data-name="Tracé 20-6" class="cls-4" d="M1815.61,722.22c-7.64-1.59-12.84-10.46-10.24-17.65a33,33,0,0,1,3.37-6.65,18.54,18.54,0,0,1,6.53-6.52c5.3-2.87,12.45-.09,15.89,6.07l17.92,35.71Z"/><path id="Tracé_21-6" data-name="Tracé 21-6" class="cls-4" d="M1815.61,722.22c-7.64-1.59-12.84-10.46-10.24-17.65a33,33,0,0,1,3.37-6.65,18.54,18.54,0,0,1,6.53-6.52c5.3-2.87,12.45-.09,15.89,6.07l17.92,35.71Z"/></g></g></g><g id="Groupe_34" data-name="Groupe 34" class="cls-10"><g class="cls-11"><g id="Groupe_17-7" data-name="Groupe 17-7"><path id="Tracé_6-7" data-name="Tracé 6-7" class="cls-4" d="M1533.67,812.35c5.68,9.66,1.32,22.71-8.78,25.84a46.44,46.44,0,0,1-10.26,1.85,28.25,28.25,0,0,1-13.16-1.71c-8.13-3.4-12.08-13.52-8.9-22.39L1513,766.68Z"/><path id="Tracé_7-7" data-name="Tracé 7-7" class="cls-4" d="M1533.67,812.35c5.68,9.66,1.32,22.71-8.78,25.84a46.44,46.44,0,0,1-10.26,1.85,28.25,28.25,0,0,1-13.16-1.71c-8.13-3.4-12.08-13.52-8.9-22.39L1513,766.68Z"/><path id="Tracé_8-7" data-name="Tracé 8-7" class="cls-4" d="M1462.53,773.13c-8.78,6.32-20.74,1.67-23.69-9.36a59.92,59.92,0,0,1-1.79-11.21,36.69,36.69,0,0,1,1.44-14.43c3-8.94,12.23-13.35,20.37-10l45.17,21.9Z"/><path id="Tracé_9-7" data-name="Tracé 9-7" class="cls-4" d="M1462.53,773.13c-8.78,6.32-20.74,1.67-23.69-9.36a59.92,59.92,0,0,1-1.79-11.21,36.69,36.69,0,0,1,1.44-14.43c3-8.94,12.23-13.35,20.37-10l45.17,21.9Z"/><path id="Tracé_10-7" data-name="Tracé 10-7" class="cls-4" d="M1563.88,727.93c8.9-6.1,20.76-1.15,23.49,10a60.09,60.09,0,0,1,1.55,11.25,36.6,36.6,0,0,1-1.73,14.39c-3.21,8.86-12.5,13.05-20.56,9.45l-44.72-23Z"/><path id="Tracé_11-7" data-name="Tracé 11-7" class="cls-4" d="M1563.88,727.93c8.9-6.1,20.76-1.15,23.49,10a60.09,60.09,0,0,1,1.55,11.25,36.6,36.6,0,0,1-1.73,14.39c-3.21,8.86-12.5,13.05-20.56,9.45l-44.72-23Z"/><path id="Tracé_12-7" data-name="Tracé 12-7" class="cls-4" d="M1491.63,692c-5.55-9.75-1-22.74,9.12-25.7A46.46,46.46,0,0,1,1511,664.6a28.35,28.35,0,0,1,13.14,1.92c8.09,3.53,11.9,13.71,8.6,22.54L1511.68,738Z"/><path id="Tracé_13-7" data-name="Tracé 13-7" class="cls-4" d="M1491.63,692c-5.55-9.75-1-22.74,9.12-25.7A46.46,46.46,0,0,1,1511,664.6a28.35,28.35,0,0,1,13.14,1.92c8.09,3.53,11.9,13.71,8.6,22.54L1511.68,738Z"/><path id="Tracé_14-7" data-name="Tracé 14-7" class="cls-4" d="M1557.54,777.53c7.64,1.55,12.88,10.4,10.3,17.6a33.28,33.28,0,0,1-3.34,6.67,18.59,18.59,0,0,1-6.5,6.54c-5.29,2.9-12.45.15-15.92-6L1524,766.72Z"/><path id="Tracé_15-7" data-name="Tracé 15-7" class="cls-4" d="M1557.54,777.53c7.64,1.55,12.88,10.4,10.3,17.6a33.28,33.28,0,0,1-3.34,6.67,18.59,18.59,0,0,1-6.5,6.54c-5.29,2.9-12.45.15-15.92-6L1524,766.72Z"/><path id="Tracé_16-7" data-name="Tracé 16-7" class="cls-4" d="M1486.05,799.92c-2.81,7.94-11.72,11.93-17.71,7.82a30,30,0,0,1-5.36-4.83,19.87,19.87,0,0,1-4.67-8.21c-1.62-6.23,2.17-13.42,8.32-16L1502,765.85Z"/><path id="Tracé_17-7" data-name="Tracé 17-7" class="cls-4" d="M1486.05,799.92c-2.81,7.94-11.72,11.93-17.71,7.82a30,30,0,0,1-5.36-4.83,19.87,19.87,0,0,1-4.67-8.21c-1.62-6.23,2.17-13.42,8.32-16L1502,765.85Z"/><path id="Tracé_18-7" data-name="Tracé 18-7" class="cls-4" d="M1538.1,699.25c2.61-8,11.42-12.29,17.5-8.35a29.78,29.78,0,0,1,5.49,4.66,19.82,19.82,0,0,1,4.87,8.07c1.78,6.17-1.83,13.48-7.92,16.26l-35,13.89Z"/><path id="Tracé_19-7" data-name="Tracé 19-7" class="cls-4" d="M1538.1,699.25c2.61-8,11.42-12.29,17.5-8.35a29.78,29.78,0,0,1,5.49,4.66,19.82,19.82,0,0,1,4.87,8.07c1.78,6.17-1.83,13.48-7.92,16.26l-35,13.89Z"/><path id="Tracé_20-7" data-name="Tracé 20-7" class="cls-4" d="M1465.91,722.22c-7.64-1.59-12.84-10.46-10.24-17.65a33,33,0,0,1,3.37-6.65,18.54,18.54,0,0,1,6.53-6.52c5.3-2.87,12.45-.09,15.89,6.07l17.92,35.71Z"/><path id="Tracé_21-7" data-name="Tracé 21-7" class="cls-4" d="M1465.91,722.22c-7.64-1.59-12.84-10.46-10.24-17.65a33,33,0,0,1,3.37-6.65,18.54,18.54,0,0,1,6.53-6.52c5.3-2.87,12.45-.09,15.89,6.07l17.92,35.71Z"/></g></g></g><g id="Groupe_35" data-name="Groupe 35" class="cls-2"><g class="cls-12"><g id="Groupe_17-8" data-name="Groupe 17-8"><path id="Tracé_6-8" data-name="Tracé 6-8" class="cls-4" d="M1634.32,441.47c-5.68-9.66-1.32-22.71,8.78-25.84a46.44,46.44,0,0,1,10.26-1.85,28.25,28.25,0,0,1,13.16,1.71c8.13,3.4,12.08,13.52,8.9,22.39L1655,487.14Z"/><path id="Tracé_7-8" data-name="Tracé 7-8" class="cls-4" d="M1634.32,441.47c-5.68-9.66-1.32-22.71,8.78-25.84a46.44,46.44,0,0,1,10.26-1.85,28.25,28.25,0,0,1,13.16,1.71c8.13,3.4,12.08,13.52,8.9,22.39L1655,487.14Z"/><path id="Tracé_8-8" data-name="Tracé 8-8" class="cls-4" d="M1705.46,480.68c8.78-6.31,20.74-1.66,23.69,9.37a59.79,59.79,0,0,1,1.79,11.21,36.51,36.51,0,0,1-1.44,14.43c-3,8.94-12.23,13.35-20.36,10L1664,503.75Z"/><path id="Tracé_9-8" data-name="Tracé 9-8" class="cls-4" d="M1705.46,480.68c8.78-6.31,20.74-1.66,23.69,9.37a59.79,59.79,0,0,1,1.79,11.21,36.51,36.51,0,0,1-1.44,14.43c-3,8.94-12.23,13.35-20.36,10L1664,503.75Z"/><path id="Tracé_10-8" data-name="Tracé 10-8" class="cls-4" d="M1604.11,525.88c-8.9,6.1-20.76,1.16-23.49-9.94a60.09,60.09,0,0,1-1.55-11.25,36.55,36.55,0,0,1,1.73-14.39c3.21-8.86,12.5-13.05,20.56-9.46l44.73,23Z"/><path id="Tracé_11-8" data-name="Tracé 11-8" class="cls-4" d="M1604.11,525.88c-8.9,6.1-20.76,1.16-23.49-9.94a60.09,60.09,0,0,1-1.55-11.25,36.55,36.55,0,0,1,1.73-14.39c3.21-8.86,12.5-13.05,20.56-9.46l44.73,23Z"/><path id="Tracé_12-8" data-name="Tracé 12-8" class="cls-4" d="M1676.36,561.84c5.56,9.75,1,22.73-9.12,25.7a46.46,46.46,0,0,1-10.28,1.68,28.35,28.35,0,0,1-13.14-1.92c-8.09-3.53-11.9-13.71-8.6-22.54l21.09-48.92Z"/><path id="Tracé_13-8" data-name="Tracé 13-8" class="cls-4" d="M1676.36,561.84c5.56,9.75,1,22.73-9.12,25.7a46.46,46.46,0,0,1-10.28,1.68,28.35,28.35,0,0,1-13.14-1.92c-8.09-3.53-11.9-13.71-8.6-22.54l21.09-48.92Z"/><path id="Tracé_14-8" data-name="Tracé 14-8" class="cls-4" d="M1610.45,476.29c-7.64-1.55-12.88-10.4-10.3-17.6a33.28,33.28,0,0,1,3.34-6.67,18.79,18.79,0,0,1,6.5-6.55c5.29-2.9,12.45-.14,15.92,6L1644,487.1Z"/><path id="Tracé_15-8" data-name="Tracé 15-8" class="cls-4" d="M1610.45,476.29c-7.64-1.55-12.88-10.4-10.3-17.6a33.28,33.28,0,0,1,3.34-6.67,18.79,18.79,0,0,1,6.5-6.55c5.29-2.9,12.45-.14,15.92,6L1644,487.1Z"/><path id="Tracé_16-8" data-name="Tracé 16-8" class="cls-4" d="M1681.94,453.9c2.81-7.94,11.72-11.93,17.71-7.82a29.66,29.66,0,0,1,5.36,4.83,19.89,19.89,0,0,1,4.68,8.21c1.61,6.23-2.18,13.42-8.33,16L1666,488Z"/><path id="Tracé_17-8" data-name="Tracé 17-8" class="cls-4" d="M1681.94,453.9c2.81-7.94,11.72-11.93,17.71-7.82a29.66,29.66,0,0,1,5.36,4.83,19.89,19.89,0,0,1,4.68,8.21c1.61,6.23-2.18,13.42-8.33,16L1666,488Z"/><path id="Tracé_18-8" data-name="Tracé 18-8" class="cls-4" d="M1629.89,554.57c-2.61,8-11.42,12.28-17.5,8.35a29.78,29.78,0,0,1-5.49-4.66,19.82,19.82,0,0,1-4.87-8.07c-1.78-6.17,1.84-13.48,7.92-16.26l35-13.89Z"/><path id="Tracé_19-8" data-name="Tracé 19-8" class="cls-4" d="M1629.89,554.57c-2.61,8-11.42,12.28-17.5,8.35a29.78,29.78,0,0,1-5.49-4.66,19.82,19.82,0,0,1-4.87-8.07c-1.78-6.17,1.84-13.48,7.92-16.26l35-13.89Z"/><path id="Tracé_20-8" data-name="Tracé 20-8" class="cls-4" d="M1702.08,531.6c7.64,1.59,12.85,10.46,10.24,17.65a33,33,0,0,1-3.37,6.65,18.54,18.54,0,0,1-6.53,6.52c-5.3,2.87-12.45.09-15.89-6.07l-17.92-35.72Z"/><path id="Tracé_21-8" data-name="Tracé 21-8" class="cls-4" d="M1702.08,531.6c7.64,1.59,12.85,10.46,10.24,17.65a33,33,0,0,1-3.37,6.65,18.54,18.54,0,0,1-6.53,6.52c-5.3,2.87-12.45.09-15.89-6.07l-17.92-35.72Z"/></g></g></g><g id="Groupe_36" data-name="Groupe 36" class="cls-2"><g class="cls-13"><g id="Groupe_17-9" data-name="Groupe 17-9"><path id="Tracé_6-9" data-name="Tracé 6-9" class="cls-4" d="M1737.32,326.47c-5.68-9.66-1.32-22.71,8.78-25.84a46.44,46.44,0,0,1,10.26-1.85,28.25,28.25,0,0,1,13.16,1.71c8.13,3.4,12.08,13.52,8.9,22.39L1758,372.14Z"/><path id="Tracé_7-9" data-name="Tracé 7-9" class="cls-4" d="M1737.32,326.47c-5.68-9.66-1.32-22.71,8.78-25.84a46.44,46.44,0,0,1,10.26-1.85,28.25,28.25,0,0,1,13.16,1.71c8.13,3.4,12.08,13.52,8.9,22.39L1758,372.14Z"/><path id="Tracé_8-9" data-name="Tracé 8-9" class="cls-4" d="M1808.46,365.68c8.78-6.31,20.74-1.66,23.69,9.37a59.79,59.79,0,0,1,1.79,11.21,36.51,36.51,0,0,1-1.44,14.43c-3,8.94-12.23,13.35-20.36,10L1767,388.75Z"/><path id="Tracé_9-9" data-name="Tracé 9-9" class="cls-4" d="M1808.46,365.68c8.78-6.31,20.74-1.66,23.69,9.37a59.79,59.79,0,0,1,1.79,11.21,36.51,36.51,0,0,1-1.44,14.43c-3,8.94-12.23,13.35-20.36,10L1767,388.75Z"/><path id="Tracé_10-9" data-name="Tracé 10-9" class="cls-4" d="M1707.11,410.88c-8.9,6.1-20.76,1.16-23.49-9.94a60.09,60.09,0,0,1-1.55-11.25,36.55,36.55,0,0,1,1.73-14.39c3.21-8.86,12.5-13.05,20.56-9.46l44.73,23Z"/><path id="Tracé_11-9" data-name="Tracé 11-9" class="cls-4" d="M1707.11,410.88c-8.9,6.1-20.76,1.16-23.49-9.94a60.09,60.09,0,0,1-1.55-11.25,36.55,36.55,0,0,1,1.73-14.39c3.21-8.86,12.5-13.05,20.56-9.46l44.73,23Z"/><path id="Tracé_12-9" data-name="Tracé 12-9" class="cls-4" d="M1779.36,446.84c5.56,9.75,1,22.73-9.12,25.7a46.46,46.46,0,0,1-10.28,1.68,28.35,28.35,0,0,1-13.14-1.92c-8.09-3.53-11.9-13.71-8.6-22.54l21.09-48.92Z"/><path id="Tracé_13-9" data-name="Tracé 13-9" class="cls-4" d="M1779.36,446.84c5.56,9.75,1,22.73-9.12,25.7a46.46,46.46,0,0,1-10.28,1.68,28.35,28.35,0,0,1-13.14-1.92c-8.09-3.53-11.9-13.71-8.6-22.54l21.09-48.92Z"/><path id="Tracé_14-9" data-name="Tracé 14-9" class="cls-4" d="M1713.45,361.29c-7.64-1.55-12.88-10.4-10.3-17.6a33.28,33.28,0,0,1,3.34-6.67,18.79,18.79,0,0,1,6.5-6.55c5.29-2.9,12.45-.14,15.92,6L1747,372.1Z"/><path id="Tracé_15-9" data-name="Tracé 15-9" class="cls-4" d="M1713.45,361.29c-7.64-1.55-12.88-10.4-10.3-17.6a33.28,33.28,0,0,1,3.34-6.67,18.79,18.79,0,0,1,6.5-6.55c5.29-2.9,12.45-.14,15.92,6L1747,372.1Z"/><path id="Tracé_16-9" data-name="Tracé 16-9" class="cls-4" d="M1784.94,338.9c2.81-7.94,11.72-11.93,17.71-7.82a29.66,29.66,0,0,1,5.36,4.83,19.89,19.89,0,0,1,4.68,8.21c1.61,6.23-2.18,13.42-8.33,16L1769,373Z"/><path id="Tracé_17-9" data-name="Tracé 17-9" class="cls-4" d="M1784.94,338.9c2.81-7.94,11.72-11.93,17.71-7.82a29.66,29.66,0,0,1,5.36,4.83,19.89,19.89,0,0,1,4.68,8.21c1.61,6.23-2.18,13.42-8.33,16L1769,373Z"/><path id="Tracé_18-9" data-name="Tracé 18-9" class="cls-4" d="M1732.89,439.57c-2.61,8-11.42,12.28-17.5,8.35a29.78,29.78,0,0,1-5.49-4.66,19.82,19.82,0,0,1-4.87-8.07c-1.78-6.17,1.84-13.48,7.92-16.26l35-13.89Z"/><path id="Tracé_19-9" data-name="Tracé 19-9" class="cls-4" d="M1732.89,439.57c-2.61,8-11.42,12.28-17.5,8.35a29.78,29.78,0,0,1-5.49-4.66,19.82,19.82,0,0,1-4.87-8.07c-1.78-6.17,1.84-13.48,7.92-16.26l35-13.89Z"/><path id="Tracé_20-9" data-name="Tracé 20-9" class="cls-4" d="M1805.08,416.6c7.64,1.59,12.85,10.46,10.24,17.65a33,33,0,0,1-3.37,6.65,18.54,18.54,0,0,1-6.53,6.52c-5.3,2.87-12.45.09-15.89-6.07l-17.92-35.72Z"/><path id="Tracé_21-9" data-name="Tracé 21-9" class="cls-4" d="M1805.08,416.6c7.64,1.59,12.85,10.46,10.24,17.65a33,33,0,0,1-3.37,6.65,18.54,18.54,0,0,1-6.53,6.52c-5.3,2.87-12.45.09-15.89-6.07l-17.92-35.72Z"/></g></g></g><g id="Groupe_37" data-name="Groupe 37" class="cls-2"><g class="cls-14"><g id="Groupe_17-10" data-name="Groupe 17-10"><path id="Tracé_6-10" data-name="Tracé 6-10" class="cls-4" d="M1839.63,445.47c-5.68-9.66-1.32-22.71,8.78-25.84a46.44,46.44,0,0,1,10.26-1.85,28.25,28.25,0,0,1,13.16,1.71c8.13,3.4,12.08,13.52,8.9,22.39l-20.43,49.26Z"/><path id="Tracé_7-10" data-name="Tracé 7-10" class="cls-4" d="M1839.63,445.47c-5.68-9.66-1.32-22.71,8.78-25.84a46.44,46.44,0,0,1,10.26-1.85,28.25,28.25,0,0,1,13.16,1.71c8.13,3.4,12.08,13.52,8.9,22.39l-20.43,49.26Z"/><path id="Tracé_8-10" data-name="Tracé 8-10" class="cls-4" d="M1910.77,484.68c8.78-6.31,20.74-1.66,23.69,9.37a59.79,59.79,0,0,1,1.79,11.21,36.51,36.51,0,0,1-1.44,14.43c-3,8.94-12.23,13.35-20.37,10l-45.17-21.9Z"/><path id="Tracé_9-10" data-name="Tracé 9-10" class="cls-4" d="M1910.77,484.68c8.78-6.31,20.74-1.66,23.69,9.37a59.79,59.79,0,0,1,1.79,11.21,36.51,36.51,0,0,1-1.44,14.43c-3,8.94-12.23,13.35-20.37,10l-45.17-21.9Z"/><path id="Tracé_10-10" data-name="Tracé 10-10" class="cls-4" d="M1809.42,529.88c-8.9,6.1-20.76,1.16-23.49-9.94a60.09,60.09,0,0,1-1.55-11.25,36.55,36.55,0,0,1,1.73-14.39c3.21-8.86,12.5-13.05,20.56-9.46l44.72,23Z"/><path id="Tracé_11-10" data-name="Tracé 11-10" class="cls-4" d="M1809.42,529.88c-8.9,6.1-20.76,1.16-23.49-9.94a60.09,60.09,0,0,1-1.55-11.25,36.55,36.55,0,0,1,1.73-14.39c3.21-8.86,12.5-13.05,20.56-9.46l44.72,23Z"/><path id="Tracé_12-10" data-name="Tracé 12-10" class="cls-4" d="M1881.67,565.84c5.55,9.75,1,22.73-9.12,25.7a46.46,46.46,0,0,1-10.28,1.68,28.35,28.35,0,0,1-13.14-1.92c-8.09-3.53-11.9-13.71-8.6-22.54l21.09-48.92Z"/><path id="Tracé_13-10" data-name="Tracé 13-10" class="cls-4" d="M1881.67,565.84c5.55,9.75,1,22.73-9.12,25.7a46.46,46.46,0,0,1-10.28,1.68,28.35,28.35,0,0,1-13.14-1.92c-8.09-3.53-11.9-13.71-8.6-22.54l21.09-48.92Z"/><path id="Tracé_14-10" data-name="Tracé 14-10" class="cls-4" d="M1815.76,480.29c-7.64-1.55-12.88-10.4-10.3-17.6a33.28,33.28,0,0,1,3.34-6.67,18.7,18.7,0,0,1,6.5-6.55c5.29-2.9,12.45-.14,15.92,6l18.06,35.63Z"/><path id="Tracé_15-10" data-name="Tracé 15-10" class="cls-4" d="M1815.76,480.29c-7.64-1.55-12.88-10.4-10.3-17.6a33.28,33.28,0,0,1,3.34-6.67,18.7,18.7,0,0,1,6.5-6.55c5.29-2.9,12.45-.14,15.92,6l18.06,35.63Z"/><path id="Tracé_16-10" data-name="Tracé 16-10" class="cls-4" d="M1887.25,457.9C1890.06,450,1899,446,1905,450.08a29.66,29.66,0,0,1,5.36,4.83,19.76,19.76,0,0,1,4.67,8.21c1.62,6.23-2.17,13.42-8.32,16L1871.34,492Z"/><path id="Tracé_17-10" data-name="Tracé 17-10" class="cls-4" d="M1887.25,457.9C1890.06,450,1899,446,1905,450.08a29.66,29.66,0,0,1,5.36,4.83,19.76,19.76,0,0,1,4.67,8.21c1.62,6.23-2.17,13.42-8.32,16L1871.34,492Z"/><path id="Tracé_18-10" data-name="Tracé 18-10" class="cls-4" d="M1835.2,558.57c-2.61,8-11.42,12.28-17.5,8.35a29.78,29.78,0,0,1-5.49-4.66,19.82,19.82,0,0,1-4.87-8.07c-1.78-6.17,1.83-13.48,7.92-16.26l35-13.89Z"/><path id="Tracé_19-10" data-name="Tracé 19-10" class="cls-4" d="M1835.2,558.57c-2.61,8-11.42,12.28-17.5,8.35a29.78,29.78,0,0,1-5.49-4.66,19.82,19.82,0,0,1-4.87-8.07c-1.78-6.17,1.83-13.48,7.92-16.26l35-13.89Z"/><path id="Tracé_20-10" data-name="Tracé 20-10" class="cls-4" d="M1907.39,535.6c7.64,1.59,12.84,10.46,10.24,17.65a33,33,0,0,1-3.37,6.65,18.54,18.54,0,0,1-6.53,6.52c-5.3,2.87-12.45.09-15.89-6.07l-17.92-35.72Z"/><path id="Tracé_21-10" data-name="Tracé 21-10" class="cls-4" d="M1907.39,535.6c7.64,1.59,12.84,10.46,10.24,17.65a33,33,0,0,1-3.37,6.65,18.54,18.54,0,0,1-6.53,6.52c-5.3,2.87-12.45.09-15.89-6.07l-17.92-35.72Z"/></g></g></g><g id="Groupe_39" data-name="Groupe 39" class="cls-2"><g class="cls-15"><g id="Groupe_17-11" data-name="Groupe 17-11"><path id="Tracé_6-11" data-name="Tracé 6-11" class="cls-4" d="M56.9,623.79c-5.69-9.66-1.33-22.71,8.77-25.84a45.87,45.87,0,0,1,10.26-1.85,28.12,28.12,0,0,1,13.16,1.71c8.14,3.4,12.09,13.51,8.9,22.39L77.57,669.46Z"/><path id="Tracé_7-11" data-name="Tracé 7-11" class="cls-4" d="M56.9,623.79c-5.69-9.66-1.33-22.71,8.77-25.84a45.87,45.87,0,0,1,10.26-1.85,28.12,28.12,0,0,1,13.16,1.71c8.14,3.4,12.09,13.51,8.9,22.39L77.57,669.46Z"/><path id="Tracé_8-11" data-name="Tracé 8-11" class="cls-4" d="M128,663c8.77-6.31,20.73-1.67,23.69,9.36a60,60,0,0,1,1.78,11.22A36.69,36.69,0,0,1,152.08,698c-3,8.93-12.23,13.35-20.37,10l-45.18-21.9Z"/><path id="Tracé_9-11" data-name="Tracé 9-11" class="cls-4" d="M128,663c8.77-6.31,20.73-1.67,23.69,9.36a60,60,0,0,1,1.78,11.22A36.69,36.69,0,0,1,152.08,698c-3,8.93-12.23,13.35-20.37,10l-45.18-21.9Z"/><path id="Tracé_10-11" data-name="Tracé 10-11" class="cls-4" d="M26.69,708.2c-8.9,6.1-20.76,1.16-23.49-9.94A60.09,60.09,0,0,1,1.64,687a36.71,36.71,0,0,1,1.73-14.38c3.21-8.86,12.5-13,20.57-9.46l44.72,23Z"/><path id="Tracé_11-11" data-name="Tracé 11-11" class="cls-4" d="M26.69,708.2c-8.9,6.1-20.76,1.16-23.49-9.94A60.09,60.09,0,0,1,1.64,687a36.71,36.71,0,0,1,1.73-14.38c3.21-8.86,12.5-13,20.57-9.46l44.72,23Z"/><path id="Tracé_12-11" data-name="Tracé 12-11" class="cls-4" d="M98.94,744.16c5.55,9.75,1,22.73-9.13,25.7a46.46,46.46,0,0,1-10.28,1.68,28.37,28.37,0,0,1-13.14-1.92c-8.08-3.54-11.9-13.72-8.6-22.54l21.1-48.92Z"/><path id="Tracé_13-11" data-name="Tracé 13-11" class="cls-4" d="M98.94,744.16c5.55,9.75,1,22.73-9.13,25.7a46.46,46.46,0,0,1-10.28,1.68,28.37,28.37,0,0,1-13.14-1.92c-8.08-3.54-11.9-13.72-8.6-22.54l21.1-48.92Z"/><path id="Tracé_14-11" data-name="Tracé 14-11" class="cls-4" d="M33,658.61c-7.65-1.55-12.89-10.4-10.3-17.6a33.28,33.28,0,0,1,3.34-6.67,18.62,18.62,0,0,1,6.5-6.55c5.29-2.9,12.45-.14,15.92,6l18.06,35.64Z"/><path id="Tracé_15-11" data-name="Tracé 15-11" class="cls-4" d="M33,658.61c-7.65-1.55-12.89-10.4-10.3-17.6a33.28,33.28,0,0,1,3.34-6.67,18.62,18.62,0,0,1,6.5-6.55c5.29-2.9,12.45-.14,15.92,6l18.06,35.64Z"/><path id="Tracé_16-11" data-name="Tracé 16-11" class="cls-4" d="M104.52,636.22c2.8-7.94,11.72-11.93,17.71-7.82a30.35,30.35,0,0,1,5.36,4.83,20,20,0,0,1,4.67,8.21c1.62,6.22-2.17,13.42-8.33,16L88.61,670.28Z"/><path id="Tracé_17-11" data-name="Tracé 17-11" class="cls-4" d="M104.52,636.22c2.8-7.94,11.72-11.93,17.71-7.82a30.35,30.35,0,0,1,5.36,4.83,20,20,0,0,1,4.67,8.21c1.62,6.22-2.17,13.42-8.33,16L88.61,670.28Z"/><path id="Tracé_18-11" data-name="Tracé 18-11" class="cls-4" d="M52.47,736.89c-2.61,8-11.42,12.28-17.51,8.35a29.78,29.78,0,0,1-5.48-4.66,20,20,0,0,1-4.88-8.07c-1.77-6.18,1.84-13.48,7.92-16.26l35-13.9Z"/><path id="Tracé_19-11" data-name="Tracé 19-11" class="cls-4" d="M52.47,736.89c-2.61,8-11.42,12.28-17.51,8.35a29.78,29.78,0,0,1-5.48-4.66,20,20,0,0,1-4.88-8.07c-1.77-6.18,1.84-13.48,7.92-16.26l35-13.9Z"/><path id="Tracé_20-11" data-name="Tracé 20-11" class="cls-4" d="M124.66,713.92c7.64,1.59,12.84,10.46,10.23,17.65a33,33,0,0,1-3.37,6.65,18.51,18.51,0,0,1-6.52,6.52c-5.3,2.87-12.45.09-15.9-6.07L91.18,703Z"/><path id="Tracé_21-11" data-name="Tracé 21-11" class="cls-4" d="M124.66,713.92c7.64,1.59,12.84,10.46,10.23,17.65a33,33,0,0,1-3.37,6.65,18.51,18.51,0,0,1-6.52,6.52c-5.3,2.87-12.45.09-15.9-6.07L91.18,703Z"/></g></g></g><g id="Groupe_41" data-name="Groupe 41" class="cls-2"><g class="cls-16"><g id="Groupe_17-12" data-name="Groupe 17-12"><path id="Tracé_6-12" data-name="Tracé 6-12" class="cls-4" d="M318,1217.35c5.68,9.66,1.33,22.71-8.78,25.84a46.44,46.44,0,0,1-10.26,1.85,28.25,28.25,0,0,1-13.16-1.71c-8.13-3.4-12.08-13.52-8.9-22.39l20.43-49.26Z"/><path id="Tracé_7-12" data-name="Tracé 7-12" class="cls-4" d="M318,1217.35c5.68,9.66,1.33,22.71-8.78,25.84a46.44,46.44,0,0,1-10.26,1.85,28.25,28.25,0,0,1-13.16-1.71c-8.13-3.4-12.08-13.52-8.9-22.39l20.43-49.26Z"/><path id="Tracé_8-12" data-name="Tracé 8-12" class="cls-4" d="M246.84,1178.13c-8.77,6.32-20.74,1.67-23.69-9.36a59.92,59.92,0,0,1-1.79-11.21,36.69,36.69,0,0,1,1.44-14.43c3-8.94,12.23-13.35,20.37-10l45.18,21.9Z"/><path id="Tracé_9-12" data-name="Tracé 9-12" class="cls-4" d="M246.84,1178.13c-8.77,6.32-20.74,1.67-23.69-9.36a59.92,59.92,0,0,1-1.79-11.21,36.69,36.69,0,0,1,1.44-14.43c3-8.94,12.23-13.35,20.37-10l45.18,21.9Z"/><path id="Tracé_10-12" data-name="Tracé 10-12" class="cls-4" d="M348.19,1132.93c8.9-6.1,20.76-1.15,23.49,10a60.09,60.09,0,0,1,1.55,11.25,36.77,36.77,0,0,1-1.72,14.39c-3.21,8.86-12.5,13-20.57,9.45l-44.72-23Z"/><path id="Tracé_11-12" data-name="Tracé 11-12" class="cls-4" d="M348.19,1132.93c8.9-6.1,20.76-1.15,23.49,10a60.09,60.09,0,0,1,1.55,11.25,36.77,36.77,0,0,1-1.72,14.39c-3.21,8.86-12.5,13-20.57,9.45l-44.72-23Z"/><path id="Tracé_12-12" data-name="Tracé 12-12" class="cls-4" d="M275.94,1097c-5.55-9.75-1-22.74,9.12-25.7a46.45,46.45,0,0,1,10.29-1.68,28.32,28.32,0,0,1,13.13,1.92c8.09,3.53,11.9,13.71,8.6,22.54L296,1143Z"/><path id="Tracé_13-12" data-name="Tracé 13-12" class="cls-4" d="M275.94,1097c-5.55-9.75-1-22.74,9.12-25.7a46.45,46.45,0,0,1,10.29-1.68,28.32,28.32,0,0,1,13.13,1.92c8.09,3.53,11.9,13.71,8.6,22.54L296,1143Z"/><path id="Tracé_14-12" data-name="Tracé 14-12" class="cls-4" d="M341.85,1182.53c7.65,1.55,12.88,10.4,10.3,17.6a33.28,33.28,0,0,1-3.34,6.67,18.59,18.59,0,0,1-6.5,6.54c-5.29,2.9-12.45.15-15.92-6l-18.06-35.63Z"/><path id="Tracé_15-12" data-name="Tracé 15-12" class="cls-4" d="M341.85,1182.53c7.65,1.55,12.88,10.4,10.3,17.6a33.28,33.28,0,0,1-3.34,6.67,18.59,18.59,0,0,1-6.5,6.54c-5.29,2.9-12.45.15-15.92-6l-18.06-35.63Z"/><path id="Tracé_16-12" data-name="Tracé 16-12" class="cls-4" d="M270.36,1204.92c-2.81,7.94-11.72,11.93-17.71,7.82a30,30,0,0,1-5.36-4.83,19.87,19.87,0,0,1-4.67-8.21c-1.62-6.23,2.17-13.42,8.32-16l35.33-12.83Z"/><path id="Tracé_17-12" data-name="Tracé 17-12" class="cls-4" d="M270.36,1204.92c-2.81,7.94-11.72,11.93-17.71,7.82a30,30,0,0,1-5.36-4.83,19.87,19.87,0,0,1-4.67-8.21c-1.62-6.23,2.17-13.42,8.32-16l35.33-12.83Z"/><path id="Tracé_18-12" data-name="Tracé 18-12" class="cls-4" d="M322.41,1104.25c2.61-8,11.42-12.29,17.5-8.35a29.78,29.78,0,0,1,5.49,4.66,19.82,19.82,0,0,1,4.87,8.07c1.78,6.17-1.83,13.48-7.92,16.26l-35,13.89Z"/><path id="Tracé_19-12" data-name="Tracé 19-12" class="cls-4" d="M322.41,1104.25c2.61-8,11.42-12.29,17.5-8.35a29.78,29.78,0,0,1,5.49,4.66,19.82,19.82,0,0,1,4.87,8.07c1.78,6.17-1.83,13.48-7.92,16.26l-35,13.89Z"/><path id="Tracé_20-12" data-name="Tracé 20-12" class="cls-4" d="M250.22,1127.22c-7.64-1.59-12.84-10.46-10.23-17.65a32.43,32.43,0,0,1,3.36-6.65,18.54,18.54,0,0,1,6.53-6.52c5.3-2.87,12.45-.09,15.89,6.07l17.93,35.71Z"/><path id="Tracé_21-12" data-name="Tracé 21-12" class="cls-4" d="M250.22,1127.22c-7.64-1.59-12.84-10.46-10.23-17.65a32.43,32.43,0,0,1,3.36-6.65,18.54,18.54,0,0,1,6.53-6.52c5.3-2.87,12.45-.09,15.89,6.07l17.93,35.71Z"/></g></g></g><g id="Groupe_42" data-name="Groupe 42" class="cls-2"><g class="cls-17"><g id="Groupe_17-13" data-name="Groupe 17-13"><path id="Tracé_6-13" data-name="Tracé 6-13" class="cls-4" d="M215,1332.35c5.68,9.66,1.33,22.71-8.78,25.84a46.44,46.44,0,0,1-10.26,1.85,28.25,28.25,0,0,1-13.16-1.71c-8.13-3.4-12.08-13.52-8.9-22.39l20.43-49.26Z"/><path id="Tracé_7-13" data-name="Tracé 7-13" class="cls-4" d="M215,1332.35c5.68,9.66,1.33,22.71-8.78,25.84a46.44,46.44,0,0,1-10.26,1.85,28.25,28.25,0,0,1-13.16-1.71c-8.13-3.4-12.08-13.52-8.9-22.39l20.43-49.26Z"/><path id="Tracé_8-13" data-name="Tracé 8-13" class="cls-4" d="M143.84,1293.13c-8.77,6.32-20.74,1.67-23.69-9.36a59.92,59.92,0,0,1-1.79-11.21,36.69,36.69,0,0,1,1.44-14.43c3-8.94,12.23-13.35,20.37-10l45.18,21.9Z"/><path id="Tracé_9-13" data-name="Tracé 9-13" class="cls-4" d="M143.84,1293.13c-8.77,6.32-20.74,1.67-23.69-9.36a59.92,59.92,0,0,1-1.79-11.21,36.69,36.69,0,0,1,1.44-14.43c3-8.94,12.23-13.35,20.37-10l45.18,21.9Z"/><path id="Tracé_10-13" data-name="Tracé 10-13" class="cls-4" d="M245.19,1247.93c8.9-6.1,20.76-1.15,23.49,10a60.09,60.09,0,0,1,1.55,11.25,36.77,36.77,0,0,1-1.72,14.39c-3.21,8.86-12.5,13-20.57,9.45l-44.72-23Z"/><path id="Tracé_11-13" data-name="Tracé 11-13" class="cls-4" d="M245.19,1247.93c8.9-6.1,20.76-1.15,23.49,10a60.09,60.09,0,0,1,1.55,11.25,36.77,36.77,0,0,1-1.72,14.39c-3.21,8.86-12.5,13-20.57,9.45l-44.72-23Z"/><path id="Tracé_12-13" data-name="Tracé 12-13" class="cls-4" d="M172.94,1212c-5.55-9.75-1-22.74,9.12-25.7a46.45,46.45,0,0,1,10.29-1.68,28.32,28.32,0,0,1,13.13,1.92c8.09,3.53,11.9,13.71,8.6,22.54L193,1258Z"/><path id="Tracé_13-13" data-name="Tracé 13-13" class="cls-4" d="M172.94,1212c-5.55-9.75-1-22.74,9.12-25.7a46.45,46.45,0,0,1,10.29-1.68,28.32,28.32,0,0,1,13.13,1.92c8.09,3.53,11.9,13.71,8.6,22.54L193,1258Z"/><path id="Tracé_14-13" data-name="Tracé 14-13" class="cls-4" d="M238.85,1297.53c7.65,1.55,12.88,10.4,10.3,17.6a33.28,33.28,0,0,1-3.34,6.67,18.59,18.59,0,0,1-6.5,6.54c-5.29,2.9-12.45.15-15.92-6l-18.06-35.63Z"/><path id="Tracé_15-13" data-name="Tracé 15-13" class="cls-4" d="M238.85,1297.53c7.65,1.55,12.88,10.4,10.3,17.6a33.28,33.28,0,0,1-3.34,6.67,18.59,18.59,0,0,1-6.5,6.54c-5.29,2.9-12.45.15-15.92-6l-18.06-35.63Z"/><path id="Tracé_16-13" data-name="Tracé 16-13" class="cls-4" d="M167.36,1319.92c-2.81,7.94-11.72,11.93-17.71,7.82a30,30,0,0,1-5.36-4.83,19.87,19.87,0,0,1-4.67-8.21c-1.62-6.23,2.17-13.42,8.32-16l35.33-12.83Z"/><path id="Tracé_17-13" data-name="Tracé 17-13" class="cls-4" d="M167.36,1319.92c-2.81,7.94-11.72,11.93-17.71,7.82a30,30,0,0,1-5.36-4.83,19.87,19.87,0,0,1-4.67-8.21c-1.62-6.23,2.17-13.42,8.32-16l35.33-12.83Z"/><path id="Tracé_18-13" data-name="Tracé 18-13" class="cls-4" d="M219.41,1219.25c2.61-8,11.42-12.29,17.5-8.35a29.78,29.78,0,0,1,5.49,4.66,19.82,19.82,0,0,1,4.87,8.07c1.78,6.17-1.83,13.48-7.92,16.26l-35,13.89Z"/><path id="Tracé_19-13" data-name="Tracé 19-13" class="cls-4" d="M219.41,1219.25c2.61-8,11.42-12.29,17.5-8.35a29.78,29.78,0,0,1,5.49,4.66,19.82,19.82,0,0,1,4.87,8.07c1.78,6.17-1.83,13.48-7.92,16.26l-35,13.89Z"/><path id="Tracé_20-13" data-name="Tracé 20-13" class="cls-4" d="M147.22,1242.22c-7.64-1.59-12.84-10.46-10.23-17.65a32.43,32.43,0,0,1,3.36-6.65,18.54,18.54,0,0,1,6.53-6.52c5.3-2.87,12.45-.09,15.89,6.07l17.93,35.71Z"/><path id="Tracé_21-13" data-name="Tracé 21-13" class="cls-4" d="M147.22,1242.22c-7.64-1.59-12.84-10.46-10.23-17.65a32.43,32.43,0,0,1,3.36-6.65,18.54,18.54,0,0,1,6.53-6.52c5.3-2.87,12.45-.09,15.89,6.07l17.93,35.71Z"/></g></g></g><g id="Groupe_43" data-name="Groupe 43" class="cls-2"><g class="cls-18"><g id="Groupe_17-14" data-name="Groupe 17-14"><path id="Tracé_6-14" data-name="Tracé 6-14" class="cls-4" d="M171.24,965.47c-5.68-9.66-1.32-22.71,8.78-25.84a46.44,46.44,0,0,1,10.26-1.85,28.25,28.25,0,0,1,13.16,1.71c8.13,3.4,12.08,13.51,8.9,22.39l-20.43,49.26Z"/><path id="Tracé_7-14" data-name="Tracé 7-14" class="cls-4" d="M171.24,965.47c-5.68-9.66-1.32-22.71,8.78-25.84a46.44,46.44,0,0,1,10.26-1.85,28.25,28.25,0,0,1,13.16,1.71c8.13,3.4,12.08,13.51,8.9,22.39l-20.43,49.26Z"/><path id="Tracé_8-14" data-name="Tracé 8-14" class="cls-4" d="M242.38,1004.68c8.78-6.31,20.74-1.67,23.69,9.37a59.79,59.79,0,0,1,1.79,11.21,36.51,36.51,0,0,1-1.44,14.43c-3,8.94-12.23,13.35-20.36,10l-45.18-21.9Z"/><path id="Tracé_9-14" data-name="Tracé 9-14" class="cls-4" d="M242.38,1004.68c8.78-6.31,20.74-1.67,23.69,9.37a59.79,59.79,0,0,1,1.79,11.21,36.51,36.51,0,0,1-1.44,14.43c-3,8.94-12.23,13.35-20.36,10l-45.18-21.9Z"/><path id="Tracé_10-14" data-name="Tracé 10-14" class="cls-4" d="M141,1049.88c-8.9,6.1-20.76,1.16-23.49-9.94a60.09,60.09,0,0,1-1.55-11.25,36.55,36.55,0,0,1,1.73-14.39c3.21-8.86,12.5-13,20.56-9.46l44.72,23Z"/><path id="Tracé_11-14" data-name="Tracé 11-14" class="cls-4" d="M141,1049.88c-8.9,6.1-20.76,1.16-23.49-9.94a60.09,60.09,0,0,1-1.55-11.25,36.55,36.55,0,0,1,1.73-14.39c3.21-8.86,12.5-13,20.56-9.46l44.72,23Z"/><path id="Tracé_12-14" data-name="Tracé 12-14" class="cls-4" d="M213.28,1085.84c5.56,9.75,1,22.73-9.12,25.7a46.46,46.46,0,0,1-10.28,1.68,28.35,28.35,0,0,1-13.14-1.92c-8.09-3.53-11.9-13.71-8.6-22.54l21.09-48.92Z"/><path id="Tracé_13-14" data-name="Tracé 13-14" class="cls-4" d="M213.28,1085.84c5.56,9.75,1,22.73-9.12,25.7a46.46,46.46,0,0,1-10.28,1.68,28.35,28.35,0,0,1-13.14-1.92c-8.09-3.53-11.9-13.71-8.6-22.54l21.09-48.92Z"/><path id="Tracé_14-14" data-name="Tracé 14-14" class="cls-4" d="M147.37,1000.29c-7.64-1.55-12.88-10.4-10.3-17.6a33.28,33.28,0,0,1,3.34-6.67,18.79,18.79,0,0,1,6.5-6.55c5.29-2.9,12.45-.14,15.92,6l18.07,35.63Z"/><path id="Tracé_15-14" data-name="Tracé 15-14" class="cls-4" d="M147.37,1000.29c-7.64-1.55-12.88-10.4-10.3-17.6a33.28,33.28,0,0,1,3.34-6.67,18.79,18.79,0,0,1,6.5-6.55c5.29-2.9,12.45-.14,15.92,6l18.07,35.63Z"/><path id="Tracé_16-14" data-name="Tracé 16-14" class="cls-4" d="M218.86,977.9c2.81-7.94,11.72-11.93,17.71-7.82a29.66,29.66,0,0,1,5.36,4.83,19.89,19.89,0,0,1,4.68,8.21c1.61,6.23-2.18,13.42-8.33,16L203,1012Z"/><path id="Tracé_17-14" data-name="Tracé 17-14" class="cls-4" d="M218.86,977.9c2.81-7.94,11.72-11.93,17.71-7.82a29.66,29.66,0,0,1,5.36,4.83,19.89,19.89,0,0,1,4.68,8.21c1.61,6.23-2.18,13.42-8.33,16L203,1012Z"/><path id="Tracé_18-14" data-name="Tracé 18-14" class="cls-4" d="M166.81,1078.57c-2.61,8-11.42,12.28-17.5,8.35a29.78,29.78,0,0,1-5.49-4.66,19.82,19.82,0,0,1-4.87-8.07c-1.78-6.17,1.84-13.48,7.92-16.26l35-13.89Z"/><path id="Tracé_19-14" data-name="Tracé 19-14" class="cls-4" d="M166.81,1078.57c-2.61,8-11.42,12.28-17.5,8.35a29.78,29.78,0,0,1-5.49-4.66,19.82,19.82,0,0,1-4.87-8.07c-1.78-6.17,1.84-13.48,7.92-16.26l35-13.89Z"/><path id="Tracé_20-14" data-name="Tracé 20-14" class="cls-4" d="M239,1055.6c7.64,1.59,12.84,10.46,10.24,17.65a33,33,0,0,1-3.37,6.65,18.54,18.54,0,0,1-6.53,6.52c-5.3,2.87-12.45.09-15.89-6.07l-17.92-35.72Z"/><path id="Tracé_21-14" data-name="Tracé 21-14" class="cls-4" d="M239,1055.6c7.64,1.59,12.84,10.46,10.24,17.65a33,33,0,0,1-3.37,6.65,18.54,18.54,0,0,1-6.53,6.52c-5.3,2.87-12.45.09-15.89-6.07l-17.92-35.72Z"/></g></g></g><g id="Groupe_9" data-name="Groupe 9"><g class="cls-19"><g id="Groupe_1" data-name="Groupe 1"><path id="Tracé_1" data-name="Tracé 1" class="cls-20" d="M90.4,1788.35s-69.78,33.84-72.16,72.18,72.16,86.12,72.16,86.12,77.71-51.54,74.54-85.37S90.4,1788.35,90.4,1788.35Z"/><path id="Tracé_2" data-name="Tracé 2" class="cls-20" d="M90.4,1788.35s-48.6,31.78-42,82.7,42,75.59,42,75.59,41.64-50.57,42.82-79.35S90.4,1788.35,90.4,1788.35Z"/><path id="Tracé_3" data-name="Tracé 3" class="cls-20" d="M47.77,1815.93s14.88,28.81,39.46,28.06,41.24-30.07,41.24-30.07"/><path id="Tracé_4" data-name="Tracé 4" class="cls-20" d="M54.71,1919.12s16.62-18.44,32.5-19.34,39.44,19.34,39.44,19.34"/><path id="Tracé_5" data-name="Tracé 5" class="cls-20" d="M18.25,1860.53s53.08,7.17,69,7,77.73-6.22,77.73-6.22"/></g></g></g></svg>