<svg id="Calque_1" data-name="Calque 1" xmlns="http://www.w3.org/2000/svg" xmlns:xlink="http://www.w3.org/1999/xlink" viewBox="0 0 1166.86 765.54"><defs><style>.cls-1,.cls-3{fill:none;}.cls-2{clip-path:url(#clip-path);}.cls-3{stroke:#d6d5c9;stroke-miterlimit:10;stroke-width:3px;}.cls-4{clip-path:url(#clip-path-2);}.cls-5{clip-path:url(#clip-path-3);}.cls-6{clip-path:url(#clip-path-4);}.cls-7{clip-path:url(#clip-path-5);}.cls-8{clip-path:url(#clip-path-6);}.cls-9{clip-path:url(#clip-path-7);}.cls-10{clip-path:url(#clip-path-8);}.cls-11{clip-path:url(#clip-path-9);}.cls-12{clip-path:url(#clip-path-10);}.cls-13{clip-path:url(#clip-path-11);}.cls-14{clip-path:url(#clip-path-12);}.cls-15{clip-path:url(#clip-path-13);}.cls-16{fill:#d6d5c9;}.cls-17{clip-path:url(#clip-path-14);}.cls-18{clip-path:url(#clip-path-15);}.cls-19{clip-path:url(#clip-path-16);}.cls-20{clip-path:url(#clip-path-17);}.cls-21{clip-path:url(#clip-path-18);}.cls-22{clip-path:url(#clip-path-19);}.cls-23{clip-path:url(#clip-path-20);}</style><clipPath id="clip-path"><rect class="cls-1" x="779.11" y="212.72" width="126.46" height="136.75"/></clipPath><clipPath id="clip-path-2"><rect class="cls-1" x="867.25" y="302.55" width="126.46" height="136.75"/></clipPath><clipPath id="clip-path-3"><rect class="cls-1" x="953.69" y="212.72" width="126.46" height="136.75"/></clipPath><clipPath id="clip-path-4"><rect class="cls-1" x="605.38" y="401.4" width="126.46" height="136.75"/></clipPath><clipPath id="clip-path-5"><rect class="cls-1" x="693.51" y="491.23" width="126.46" height="136.75"/></clipPath><clipPath id="clip-path-6"><rect class="cls-1" x="779.96" y="401.4" width="126.46" height="136.75"/></clipPath><clipPath id="clip-path-7"><rect class="cls-1" x="963.01" y="387.3" width="126.46" height="136.75"/></clipPath><clipPath id="clip-path-8"><rect class="cls-1" x="338.42" y="311.56" width="126.46" height="136.75"/></clipPath><clipPath id="clip-path-9"><rect class="cls-1" x="692.67" y="308.17" width="126.46" height="136.75"/></clipPath><clipPath id="clip-path-10"><rect class="cls-1" x="513" y="311.56" width="126.46" height="136.75"/></clipPath><clipPath id="clip-path-11"><rect class="cls-1" x="251.13" y="410.76" width="126.46" height="136.75"/></clipPath><clipPath id="clip-path-12"><rect class="cls-1" x="425.71" y="410.76" width="126.46" height="136.75"/></clipPath><clipPath id="clip-path-13"><rect class="cls-1" x="333.92" y="500.86" width="130.96" height="151.12"/></clipPath><clipPath id="clip-path-14"><rect class="cls-1" x="167" y="500.86" width="130.96" height="151.12"/></clipPath><clipPath id="clip-path-15"><rect class="cls-1" x="253.67" y="614.42" width="130.96" height="151.12"/></clipPath><clipPath id="clip-path-16"><rect class="cls-1" x="86.95" y="434.76" width="105.89" height="116.95"/></clipPath><clipPath id="clip-path-17"><rect class="cls-1" x="861.9" y="97.46" width="130.96" height="151.12"/></clipPath><clipPath id="clip-path-18"><rect class="cls-1" x="949.19" width="130.96" height="151.12"/></clipPath><clipPath id="clip-path-19"><rect class="cls-1" x="1035.9" y="100.85" width="130.96" height="151.12"/></clipPath><clipPath id="clip-path-20"><rect class="cls-1" y="518.39" width="86.95" height="96.04"/></clipPath></defs><g id="Groupe_2" data-name="Groupe 2"><g class="cls-2"><g id="Groupe_1" data-name="Groupe 1"><path id="Tracé_1" data-name="Tracé 1" class="cls-3" d="M841.32,214s-59.14,28.67-61.16,61.17,61.16,73,61.16,73,65.85-43.67,63.16-72.35S841.32,214,841.32,214Z"/><path id="Tracé_2" data-name="Tracé 2" class="cls-3" d="M841.32,214s-41.19,26.93-35.62,70.09,35.62,64.06,35.62,64.06,35.28-42.87,36.28-67.25S841.32,214,841.32,214Z"/><path id="Tracé_3" data-name="Tracé 3" class="cls-3" d="M805.18,237.37s12.62,24.42,33.45,23.78,34.94-25.49,34.94-25.49"/><path id="Tracé_4" data-name="Tracé 4" class="cls-3" d="M811.07,324.82s14.08-15.63,27.54-16.39S872,324.82,872,324.82"/><path id="Tracé_5" data-name="Tracé 5" class="cls-3" d="M780.16,275.17s45,6.08,58.45,5.9,65.87-5.26,65.87-5.26"/></g></g></g><g id="Groupe_3" data-name="Groupe 3"><g class="cls-4"><g id="Groupe_1-2" data-name="Groupe 1-2"><path id="Tracé_1-2" data-name="Tracé 1-2" class="cls-3" d="M929.45,303.83S870.32,332.5,868.3,365s61.15,73,61.15,73,65.86-43.67,63.17-72.34S929.45,303.83,929.45,303.83Z"/><path id="Tracé_2-2" data-name="Tracé 2-2" class="cls-3" d="M929.45,303.83s-41.18,26.94-35.61,70.09S929.45,438,929.45,438s35.29-42.86,36.29-67.25S929.45,303.83,929.45,303.83Z"/><path id="Tracé_3-2" data-name="Tracé 3-2" class="cls-3" d="M893.32,327.2s12.61,24.42,33.45,23.78,34.94-25.48,34.94-25.48"/><path id="Tracé_4-2" data-name="Tracé 4-2" class="cls-3" d="M899.2,414.66s14.09-15.63,27.55-16.4,33.43,16.4,33.43,16.4"/><path id="Tracé_5-2" data-name="Tracé 5-2" class="cls-3" d="M868.3,365s45,6.08,58.45,5.91,65.87-5.27,65.87-5.27"/></g></g></g><g id="Groupe_4" data-name="Groupe 4"><g class="cls-5"><g id="Groupe_1-3" data-name="Groupe 1-3"><path id="Tracé_1-3" data-name="Tracé 1-3" class="cls-3" d="M1015.9,214s-59.14,28.67-61.16,61.17,61.16,73,61.16,73,65.85-43.67,63.16-72.35S1015.9,214,1015.9,214Z"/><path id="Tracé_2-3" data-name="Tracé 2-3" class="cls-3" d="M1015.9,214s-41.19,26.93-35.62,70.09,35.62,64.06,35.62,64.06,35.28-42.87,36.28-67.25S1015.9,214,1015.9,214Z"/><path id="Tracé_3-3" data-name="Tracé 3-3" class="cls-3" d="M979.76,237.37s12.62,24.42,33.45,23.78,34.94-25.49,34.94-25.49"/><path id="Tracé_4-3" data-name="Tracé 4-3" class="cls-3" d="M985.65,324.82s14.09-15.63,27.54-16.39,33.43,16.39,33.43,16.39"/><path id="Tracé_5-3" data-name="Tracé 5-3" class="cls-3" d="M954.75,275.17s45,6.08,58.44,5.9,65.87-5.26,65.87-5.26"/></g></g></g><g id="Groupe_5" data-name="Groupe 5"><g class="cls-6"><g id="Groupe_1-4" data-name="Groupe 1-4"><path id="Tracé_1-4" data-name="Tracé 1-4" class="cls-3" d="M667.58,402.68s-59.13,28.67-61.15,61.17,61.15,73,61.15,73,65.86-43.67,63.17-72.35S667.58,402.68,667.58,402.68Z"/><path id="Tracé_2-4" data-name="Tracé 2-4" class="cls-3" d="M667.58,402.68S626.4,429.61,632,472.77s35.61,64.06,35.61,64.06,35.29-42.87,36.29-67.25S667.58,402.68,667.58,402.68Z"/><path id="Tracé_3-4" data-name="Tracé 3-4" class="cls-3" d="M631.45,426.05s12.61,24.42,33.44,23.78,35-25.49,35-25.49"/><path id="Tracé_4-4" data-name="Tracé 4-4" class="cls-3" d="M637.33,513.5s14.09-15.62,27.55-16.39S698.3,513.5,698.3,513.5"/><path id="Tracé_5-4" data-name="Tracé 5-4" class="cls-3" d="M606.43,463.85s45,6.08,58.45,5.9,65.87-5.26,65.87-5.26"/></g></g></g><g id="Groupe_6" data-name="Groupe 6"><g class="cls-7"><g id="Groupe_1-5" data-name="Groupe 1-5"><path id="Tracé_1-5" data-name="Tracé 1-5" class="cls-3" d="M755.72,492.51s-59.14,28.68-61.15,61.17,61.15,73,61.15,73,65.85-43.67,63.17-72.34S755.72,492.51,755.72,492.51Z"/><path id="Tracé_2-5" data-name="Tracé 2-5" class="cls-3" d="M755.72,492.51s-41.19,26.94-35.61,70.09,35.61,64.06,35.61,64.06S791,583.8,792,559.41,755.72,492.51,755.72,492.51Z"/><path id="Tracé_3-5" data-name="Tracé 3-5" class="cls-3" d="M719.59,515.88S732.2,540.3,753,539.66s35-25.48,35-25.48"/><path id="Tracé_4-5" data-name="Tracé 4-5" class="cls-3" d="M725.47,603.34s14.09-15.63,27.54-16.4,33.43,16.4,33.43,16.4"/><path id="Tracé_5-5" data-name="Tracé 5-5" class="cls-3" d="M694.57,553.68s45,6.08,58.45,5.91,65.87-5.27,65.87-5.27"/></g></g></g><g id="Groupe_7" data-name="Groupe 7"><g class="cls-8"><g id="Groupe_1-6" data-name="Groupe 1-6"><path id="Tracé_1-6" data-name="Tracé 1-6" class="cls-3" d="M842.16,402.68S783,431.35,781,463.85s61.15,73,61.15,73,65.86-43.67,63.17-72.35S842.16,402.68,842.16,402.68Z"/><path id="Tracé_2-6" data-name="Tracé 2-6" class="cls-3" d="M842.16,402.68S801,429.61,806.55,472.77s35.61,64.06,35.61,64.06,35.29-42.87,36.29-67.25S842.16,402.68,842.16,402.68Z"/><path id="Tracé_3-6" data-name="Tracé 3-6" class="cls-3" d="M806,426.05s12.61,24.42,33.45,23.78,34.94-25.49,34.94-25.49"/><path id="Tracé_4-6" data-name="Tracé 4-6" class="cls-3" d="M811.91,513.5s14.09-15.62,27.55-16.39,33.43,16.39,33.43,16.39"/><path id="Tracé_5-6" data-name="Tracé 5-6" class="cls-3" d="M781,463.85s45,6.08,58.45,5.9,65.87-5.26,65.87-5.26"/></g></g></g><g id="Groupe_8" data-name="Groupe 8"><g class="cls-9"><g id="Groupe_1-7" data-name="Groupe 1-7"><path id="Tracé_1-7" data-name="Tracé 1-7" class="cls-3" d="M1025.22,388.58s-59.14,28.67-61.15,61.17,61.15,73,61.15,73,65.85-43.67,63.17-72.35S1025.22,388.58,1025.22,388.58Z"/><path id="Tracé_2-7" data-name="Tracé 2-7" class="cls-3" d="M1025.22,388.58S984,415.51,989.6,458.67s35.62,64.06,35.62,64.06,35.29-42.86,36.29-67.25S1025.22,388.58,1025.22,388.58Z"/><path id="Tracé_3-7" data-name="Tracé 3-7" class="cls-3" d="M989.09,412s12.61,24.42,33.44,23.78,35-25.49,35-25.49"/><path id="Tracé_4-7" data-name="Tracé 4-7" class="cls-3" d="M995,499.4s14.09-15.62,27.54-16.39,33.43,16.39,33.43,16.39"/><path id="Tracé_5-7" data-name="Tracé 5-7" class="cls-3" d="M964.07,449.75s45,6.08,58.44,5.9,65.88-5.26,65.88-5.26"/></g></g></g><g id="Groupe_11" data-name="Groupe 11"><g class="cls-10"><g id="Groupe_1-8" data-name="Groupe 1-8"><path id="Tracé_1-8" data-name="Tracé 1-8" class="cls-3" d="M400.63,312.85S341.49,341.52,339.47,374s61.16,73,61.16,73,65.85-43.68,63.16-72.35S400.63,312.85,400.63,312.85Z"/><path id="Tracé_2-8" data-name="Tracé 2-8" class="cls-3" d="M400.63,312.85S359.44,339.78,365,382.93,400.63,447,400.63,447s35.29-42.86,36.28-67.24S400.63,312.85,400.63,312.85Z"/><path id="Tracé_3-8" data-name="Tracé 3-8" class="cls-3" d="M364.49,336.22s12.62,24.42,33.45,23.78,34.95-25.49,34.95-25.49"/><path id="Tracé_4-8" data-name="Tracé 4-8" class="cls-3" d="M370.38,423.67s14.09-15.63,27.54-16.39,33.43,16.39,33.43,16.39"/><path id="Tracé_5-8" data-name="Tracé 5-8" class="cls-3" d="M339.48,374s45,6.07,58.44,5.9,65.87-5.27,65.87-5.27"/></g></g></g><g id="Groupe_12" data-name="Groupe 12"><g class="cls-11"><g id="Groupe_1-9" data-name="Groupe 1-9"><path id="Tracé_1-9" data-name="Tracé 1-9" class="cls-3" d="M754.87,309.46s-59.13,28.67-61.15,61.17,61.15,73,61.15,73,65.86-43.68,63.17-72.35S754.87,309.46,754.87,309.46Z"/><path id="Tracé_2-9" data-name="Tracé 2-9" class="cls-3" d="M754.87,309.46s-41.18,26.93-35.61,70.08,35.61,64.06,35.61,64.06,35.29-42.86,36.29-67.24S754.87,309.46,754.87,309.46Z"/><path id="Tracé_3-9" data-name="Tracé 3-9" class="cls-3" d="M718.74,332.83s12.61,24.42,33.44,23.78,35-25.49,35-25.49"/><path id="Tracé_4-9" data-name="Tracé 4-9" class="cls-3" d="M724.62,420.28s14.09-15.63,27.55-16.39,33.42,16.39,33.42,16.39"/><path id="Tracé_5-9" data-name="Tracé 5-9" class="cls-3" d="M693.72,370.63s45,6.07,58.45,5.9S818,371.26,818,371.26"/></g></g></g><g id="Groupe_13" data-name="Groupe 13"><g class="cls-12"><g id="Groupe_1-10" data-name="Groupe 1-10"><path id="Tracé_1-10" data-name="Tracé 1-10" class="cls-3" d="M575.21,312.85S516.07,341.52,514.06,374s61.15,73,61.15,73,65.85-43.68,63.16-72.35S575.21,312.85,575.21,312.85Z"/><path id="Tracé_2-10" data-name="Tracé 2-10" class="cls-3" d="M575.21,312.85S534,339.78,539.59,382.93,575.21,447,575.21,447s35.29-42.86,36.28-67.24S575.21,312.85,575.21,312.85Z"/><path id="Tracé_3-10" data-name="Tracé 3-10" class="cls-3" d="M539.07,336.22s12.62,24.42,33.45,23.78,35-25.49,35-25.49"/><path id="Tracé_4-10" data-name="Tracé 4-10" class="cls-3" d="M545,423.67S559.05,408,572.5,407.28s33.43,16.39,33.43,16.39"/><path id="Tracé_5-10" data-name="Tracé 5-10" class="cls-3" d="M514.06,374s45,6.07,58.44,5.9,65.87-5.27,65.87-5.27"/></g></g></g><g id="Groupe_14" data-name="Groupe 14"><g class="cls-13"><g id="Groupe_1-11" data-name="Groupe 1-11"><path id="Tracé_1-11" data-name="Tracé 1-11" class="cls-3" d="M313.34,412s-59.14,28.67-61.16,61.17,61.16,73,61.16,73,65.85-43.67,63.16-72.35S313.34,412,313.34,412Z"/><path id="Tracé_2-11" data-name="Tracé 2-11" class="cls-3" d="M313.34,412S272.15,439,277.72,482.13s35.62,64.06,35.62,64.06,35.28-42.87,36.28-67.25S313.34,412,313.34,412Z"/><path id="Tracé_3-11" data-name="Tracé 3-11" class="cls-3" d="M277.2,435.41s12.62,24.42,33.45,23.78,35-25.49,35-25.49"/><path id="Tracé_4-11" data-name="Tracé 4-11" class="cls-3" d="M283.09,522.86s14.09-15.63,27.54-16.39,33.43,16.39,33.43,16.39"/><path id="Tracé_5-11" data-name="Tracé 5-11" class="cls-3" d="M252.19,473.21s45,6.08,58.44,5.9,65.87-5.27,65.87-5.27"/></g></g></g><g id="Groupe_16" data-name="Groupe 16"><g class="cls-14"><g id="Groupe_1-12" data-name="Groupe 1-12"><path id="Tracé_1-12" data-name="Tracé 1-12" class="cls-3" d="M487.92,412s-59.14,28.67-61.16,61.17,61.16,73,61.16,73,65.85-43.67,63.16-72.35S487.92,412,487.92,412Z"/><path id="Tracé_2-12" data-name="Tracé 2-12" class="cls-3" d="M487.92,412S446.73,439,452.3,482.13s35.62,64.06,35.62,64.06,35.29-42.87,36.28-67.25S487.92,412,487.92,412Z"/><path id="Tracé_3-12" data-name="Tracé 3-12" class="cls-3" d="M451.78,435.41s12.62,24.42,33.45,23.78,34.95-25.49,34.95-25.49"/><path id="Tracé_4-12" data-name="Tracé 4-12" class="cls-3" d="M457.67,522.86s14.09-15.63,27.54-16.39,33.43,16.39,33.43,16.39"/><path id="Tracé_5-12" data-name="Tracé 5-12" class="cls-3" d="M426.77,473.21s45,6.08,58.44,5.9,65.87-5.27,65.87-5.27"/></g></g></g><g id="Groupe_18" data-name="Groupe 18"><g class="cls-15"><g id="Groupe_17" data-name="Groupe 17"><path id="Tracé_6" data-name="Tracé 6" class="cls-16" d="M381.85,525.57c-4.82-8.19-1.13-19.25,7.43-21.91a39.52,39.52,0,0,1,8.7-1.56,23.82,23.82,0,0,1,11.15,1.45c6.9,2.88,10.24,11.45,7.55,19l-17.32,41.75Z"/><path id="Tracé_7" data-name="Tracé 7" class="cls-16" d="M381.85,525.57c-4.82-8.19-1.13-19.25,7.43-21.91a39.52,39.52,0,0,1,8.7-1.56,23.82,23.82,0,0,1,11.15,1.45c6.9,2.88,10.24,11.45,7.55,19l-17.32,41.75Z"/><path id="Tracé_8" data-name="Tracé 8" class="cls-16" d="M442.14,558.8c7.43-5.35,17.57-1.42,20.07,7.93a51.07,51.07,0,0,1,1.52,9.51,31,31,0,0,1-1.22,12.22c-2.57,7.58-10.36,11.32-17.26,8.44L407,578.34Z"/><path id="Tracé_9" data-name="Tracé 9" class="cls-16" d="M442.14,558.8c7.43-5.35,17.57-1.42,20.07,7.93a51.07,51.07,0,0,1,1.52,9.51,31,31,0,0,1-1.22,12.22c-2.57,7.58-10.36,11.32-17.26,8.44L407,578.34Z"/><path id="Tracé_10" data-name="Tracé 10" class="cls-16" d="M356.25,597.1c-7.55,5.17-17.6,1-19.91-8.42a51.19,51.19,0,0,1-1.32-9.54A31.09,31.09,0,0,1,336.48,567c2.73-7.51,10.6-11.06,17.43-8l37.91,19.5Z"/><path id="Tracé_11" data-name="Tracé 11" class="cls-16" d="M356.25,597.1c-7.55,5.17-17.6,1-19.91-8.42a51.19,51.19,0,0,1-1.32-9.54A31.09,31.09,0,0,1,336.48,567c2.73-7.51,10.6-11.06,17.43-8l37.91,19.5Z"/><path id="Tracé_12" data-name="Tracé 12" class="cls-16" d="M417.47,627.57c4.71,8.27.87,19.27-7.73,21.78a39.52,39.52,0,0,1-8.71,1.43,23.91,23.91,0,0,1-11.13-1.63c-6.86-3-10.09-11.62-7.29-19.1l17.87-41.46Z"/><path id="Tracé_13" data-name="Tracé 13" class="cls-16" d="M417.47,627.57c4.71,8.27.87,19.27-7.73,21.78a39.52,39.52,0,0,1-8.71,1.43,23.91,23.91,0,0,1-11.13-1.63c-6.86-3-10.09-11.62-7.29-19.1l17.87-41.46Z"/><path id="Tracé_14" data-name="Tracé 14" class="cls-16" d="M361.62,555.08c-6.48-1.32-10.92-8.82-8.73-14.92a28.17,28.17,0,0,1,2.83-5.65,15.75,15.75,0,0,1,5.51-5.55c4.48-2.46,10.55-.13,13.49,5.08L390,564.23Z"/><path id="Tracé_15" data-name="Tracé 15" class="cls-16" d="M361.62,555.08c-6.48-1.32-10.92-8.82-8.73-14.92a28.17,28.17,0,0,1,2.83-5.65,15.75,15.75,0,0,1,5.51-5.55c4.48-2.46,10.55-.13,13.49,5.08L390,564.23Z"/><path id="Tracé_16" data-name="Tracé 16" class="cls-16" d="M422.2,536.1c2.38-6.73,9.94-10.11,15-6.63a26,26,0,0,1,4.55,4.09,17.1,17.1,0,0,1,4,7c1.37,5.28-1.85,11.38-7.06,13.58L408.72,565Z"/><path id="Tracé_17" data-name="Tracé 17" class="cls-16" d="M422.2,536.1c2.38-6.73,9.94-10.11,15-6.63a26,26,0,0,1,4.55,4.09,17.1,17.1,0,0,1,4,7c1.37,5.28-1.85,11.38-7.06,13.58L408.72,565Z"/><path id="Tracé_18" data-name="Tracé 18" class="cls-16" d="M378.09,621.42c-2.21,6.79-9.67,10.41-14.83,7.07a24.75,24.75,0,0,1-4.65-4,16.79,16.79,0,0,1-4.13-6.83c-1.51-5.24,1.56-11.43,6.71-13.78l29.66-11.78Z"/><path id="Tracé_19" data-name="Tracé 19" class="cls-16" d="M378.09,621.42c-2.21,6.79-9.67,10.41-14.83,7.07a24.75,24.75,0,0,1-4.65-4,16.79,16.79,0,0,1-4.13-6.83c-1.51-5.24,1.56-11.43,6.71-13.78l29.66-11.78Z"/><path id="Tracé_20" data-name="Tracé 20" class="cls-16" d="M439.27,602c6.48,1.34,10.89,8.87,8.68,15a28.48,28.48,0,0,1-2.86,5.64,15.8,15.8,0,0,1-5.53,5.52c-4.49,2.43-10.55.07-13.47-5.14L410.9,592.66Z"/><path id="Tracé_21" data-name="Tracé 21" class="cls-16" d="M439.27,602c6.48,1.34,10.89,8.87,8.68,15a28.48,28.48,0,0,1-2.86,5.64,15.8,15.8,0,0,1-5.53,5.52c-4.49,2.43-10.55.07-13.47-5.14L410.9,592.66Z"/></g></g></g><g id="Groupe_19" data-name="Groupe 19"><g class="cls-17"><g id="Groupe_17-2" data-name="Groupe 17-2"><path id="Tracé_6-2" data-name="Tracé 6-2" class="cls-16" d="M214.93,525.57c-4.82-8.19-1.12-19.25,7.44-21.91a39.43,39.43,0,0,1,8.69-1.56,23.86,23.86,0,0,1,11.16,1.45c6.89,2.88,10.24,11.45,7.54,19l-17.31,41.75Z"/><path id="Tracé_7-2" data-name="Tracé 7-2" class="cls-16" d="M214.93,525.57c-4.82-8.19-1.12-19.25,7.44-21.91a39.43,39.43,0,0,1,8.69-1.56,23.86,23.86,0,0,1,11.16,1.45c6.89,2.88,10.24,11.45,7.54,19l-17.31,41.75Z"/><path id="Tracé_8-2" data-name="Tracé 8-2" class="cls-16" d="M275.22,558.8c7.44-5.35,17.57-1.42,20.08,7.93a51.06,51.06,0,0,1,1.51,9.51,31,31,0,0,1-1.22,12.22c-2.56,7.58-10.36,11.32-17.26,8.44L240,578.34Z"/><path id="Tracé_9-2" data-name="Tracé 9-2" class="cls-16" d="M275.22,558.8c7.44-5.35,17.57-1.42,20.08,7.93a51.06,51.06,0,0,1,1.51,9.51,31,31,0,0,1-1.22,12.22c-2.56,7.58-10.36,11.32-17.26,8.44L240,578.34Z"/><path id="Tracé_10-2" data-name="Tracé 10-2" class="cls-16" d="M189.33,597.1c-7.54,5.17-17.6,1-19.91-8.42a51.19,51.19,0,0,1-1.32-9.54A31.09,31.09,0,0,1,169.57,567c2.72-7.51,10.59-11.06,17.43-8l37.9,19.5Z"/><path id="Tracé_11-2" data-name="Tracé 11-2" class="cls-16" d="M189.33,597.1c-7.54,5.17-17.6,1-19.91-8.42a51.19,51.19,0,0,1-1.32-9.54A31.09,31.09,0,0,1,169.57,567c2.72-7.51,10.59-11.06,17.43-8l37.9,19.5Z"/><path id="Tracé_12-2" data-name="Tracé 12-2" class="cls-16" d="M250.56,627.57c4.7,8.27.86,19.27-7.73,21.78a39.61,39.61,0,0,1-8.72,1.43A23.93,23.93,0,0,1,223,649.15c-6.85-3-10.08-11.62-7.29-19.1l17.88-41.46Z"/><path id="Tracé_13-2" data-name="Tracé 13-2" class="cls-16" d="M250.56,627.57c4.7,8.27.86,19.27-7.73,21.78a39.61,39.61,0,0,1-8.72,1.43A23.93,23.93,0,0,1,223,649.15c-6.85-3-10.08-11.62-7.29-19.1l17.88-41.46Z"/><path id="Tracé_14-2" data-name="Tracé 14-2" class="cls-16" d="M194.7,555.08c-6.48-1.32-10.92-8.82-8.73-14.92a28.17,28.17,0,0,1,2.83-5.65,15.75,15.75,0,0,1,5.51-5.55c4.49-2.46,10.55-.13,13.49,5.08l15.31,30.19Z"/><path id="Tracé_15-2" data-name="Tracé 15-2" class="cls-16" d="M194.7,555.08c-6.48-1.32-10.92-8.82-8.73-14.92a28.17,28.17,0,0,1,2.83-5.65,15.75,15.75,0,0,1,5.51-5.55c4.49-2.46,10.55-.13,13.49,5.08l15.31,30.19Z"/><path id="Tracé_16-2" data-name="Tracé 16-2" class="cls-16" d="M255.29,536.1c2.38-6.73,9.93-10.11,15-6.63a25.3,25.3,0,0,1,4.55,4.09,16.87,16.87,0,0,1,4,7c1.37,5.28-1.84,11.38-7.06,13.58L241.8,565Z"/><path id="Tracé_17-2" data-name="Tracé 17-2" class="cls-16" d="M255.29,536.1c2.38-6.73,9.93-10.11,15-6.63a25.3,25.3,0,0,1,4.55,4.09,16.87,16.87,0,0,1,4,7c1.37,5.28-1.84,11.38-7.06,13.58L241.8,565Z"/><path id="Tracé_18-2" data-name="Tracé 18-2" class="cls-16" d="M211.18,621.42c-2.21,6.79-9.68,10.41-14.84,7.07a25.4,25.4,0,0,1-4.65-4,16.9,16.9,0,0,1-4.13-6.83c-1.5-5.24,1.56-11.43,6.72-13.78l29.65-11.78Z"/><path id="Tracé_19-2" data-name="Tracé 19-2" class="cls-16" d="M211.18,621.42c-2.21,6.79-9.68,10.41-14.84,7.07a25.4,25.4,0,0,1-4.65-4,16.9,16.9,0,0,1-4.13-6.83c-1.5-5.24,1.56-11.43,6.72-13.78l29.65-11.78Z"/><path id="Tracé_20-2" data-name="Tracé 20-2" class="cls-16" d="M272.36,602c6.47,1.34,10.88,8.87,8.67,15a29,29,0,0,1-2.85,5.64,15.83,15.83,0,0,1-5.54,5.52c-4.49,2.43-10.55.07-13.46-5.14L244,592.66Z"/><path id="Tracé_21-2" data-name="Tracé 21-2" class="cls-16" d="M272.36,602c6.47,1.34,10.88,8.87,8.67,15a29,29,0,0,1-2.85,5.64,15.83,15.83,0,0,1-5.54,5.52c-4.49,2.43-10.55.07-13.46-5.14L244,592.66Z"/></g></g></g><g id="Groupe_20" data-name="Groupe 20"><g class="cls-18"><g id="Groupe_17-3" data-name="Groupe 17-3"><path id="Tracé_6-3" data-name="Tracé 6-3" class="cls-16" d="M301.6,639.13c-4.82-8.19-1.12-19.25,7.44-21.9a38.87,38.87,0,0,1,8.69-1.57,24,24,0,0,1,11.16,1.45c6.89,2.88,10.23,11.45,7.54,19l-17.31,41.74Z"/><path id="Tracé_7-3" data-name="Tracé 7-3" class="cls-16" d="M301.6,639.13c-4.82-8.19-1.12-19.25,7.44-21.9a38.87,38.87,0,0,1,8.69-1.57,24,24,0,0,1,11.16,1.45c6.89,2.88,10.23,11.45,7.54,19l-17.31,41.74Z"/><path id="Tracé_8-3" data-name="Tracé 8-3" class="cls-16" d="M361.89,672.36c7.43-5.35,17.57-1.41,20.08,7.93a51.06,51.06,0,0,1,1.51,9.51A31,31,0,0,1,382.26,702c-2.56,7.58-10.36,11.32-17.26,8.45l-38.29-18.56Z"/><path id="Tracé_9-3" data-name="Tracé 9-3" class="cls-16" d="M361.89,672.36c7.43-5.35,17.57-1.41,20.08,7.93a51.06,51.06,0,0,1,1.51,9.51A31,31,0,0,1,382.26,702c-2.56,7.58-10.36,11.32-17.26,8.45l-38.29-18.56Z"/><path id="Tracé_10-3" data-name="Tracé 10-3" class="cls-16" d="M276,710.67c-7.54,5.17-17.6,1-19.91-8.43a51.08,51.08,0,0,1-1.32-9.54,30.93,30.93,0,0,1,1.47-12.19c2.72-7.51,10.59-11.06,17.43-8L311.57,692Z"/><path id="Tracé_11-3" data-name="Tracé 11-3" class="cls-16" d="M276,710.67c-7.54,5.17-17.6,1-19.91-8.43a51.08,51.08,0,0,1-1.32-9.54,30.93,30.93,0,0,1,1.47-12.19c2.72-7.51,10.59-11.06,17.43-8L311.57,692Z"/><path id="Tracé_12-3" data-name="Tracé 12-3" class="cls-16" d="M337.23,741.14c4.7,8.26.86,19.26-7.73,21.78a39.1,39.1,0,0,1-8.72,1.42,23.91,23.91,0,0,1-11.13-1.63c-6.86-3-10.09-11.62-7.29-19.1l17.88-41.46Z"/><path id="Tracé_13-3" data-name="Tracé 13-3" class="cls-16" d="M337.23,741.14c4.7,8.26.86,19.26-7.73,21.78a39.1,39.1,0,0,1-8.72,1.42,23.91,23.91,0,0,1-11.13-1.63c-6.86-3-10.09-11.62-7.29-19.1l17.88-41.46Z"/><path id="Tracé_14-3" data-name="Tracé 14-3" class="cls-16" d="M281.37,668.64c-6.48-1.32-10.92-8.82-8.73-14.92a28.43,28.43,0,0,1,2.83-5.65,15.83,15.83,0,0,1,5.51-5.55c4.48-2.46,10.55-.12,13.49,5.08l15.31,30.19Z"/><path id="Tracé_15-3" data-name="Tracé 15-3" class="cls-16" d="M281.37,668.64c-6.48-1.32-10.92-8.82-8.73-14.92a28.43,28.43,0,0,1,2.83-5.65,15.83,15.83,0,0,1,5.51-5.55c4.48-2.46,10.55-.12,13.49,5.08l15.31,30.19Z"/><path id="Tracé_16-3" data-name="Tracé 16-3" class="cls-16" d="M342,649.66c2.39-6.73,9.94-10.11,15-6.63a25.7,25.7,0,0,1,4.55,4.1,17,17,0,0,1,4,7c1.37,5.28-1.85,11.38-7.06,13.58l-29.94,10.87Z"/><path id="Tracé_17-3" data-name="Tracé 17-3" class="cls-16" d="M342,649.66c2.39-6.73,9.94-10.11,15-6.63a25.7,25.7,0,0,1,4.55,4.1,17,17,0,0,1,4,7c1.37,5.28-1.85,11.38-7.06,13.58l-29.94,10.87Z"/><path id="Tracé_18-3" data-name="Tracé 18-3" class="cls-16" d="M297.85,735c-2.22,6.8-9.68,10.41-14.84,7.08a25.85,25.85,0,0,1-4.65-4,16.9,16.9,0,0,1-4.13-6.83c-1.5-5.24,1.56-11.43,6.71-13.78l29.66-11.78Z"/><path id="Tracé_19-3" data-name="Tracé 19-3" class="cls-16" d="M297.85,735c-2.22,6.8-9.68,10.41-14.84,7.08a25.85,25.85,0,0,1-4.65-4,16.9,16.9,0,0,1-4.13-6.83c-1.5-5.24,1.56-11.43,6.71-13.78l29.66-11.78Z"/><path id="Tracé_20-3" data-name="Tracé 20-3" class="cls-16" d="M359,715.51c6.47,1.35,10.88,8.87,8.67,15a28.48,28.48,0,0,1-2.86,5.64,15.8,15.8,0,0,1-5.53,5.52c-4.49,2.43-10.55.07-13.47-5.14l-15.19-30.27Z"/><path id="Tracé_21-3" data-name="Tracé 21-3" class="cls-16" d="M359,715.51c6.47,1.35,10.88,8.87,8.67,15a28.48,28.48,0,0,1-2.86,5.64,15.8,15.8,0,0,1-5.53,5.52c-4.49,2.43-10.55.07-13.47-5.14l-15.19-30.27Z"/></g></g></g><g id="Groupe_21" data-name="Groupe 21"><g class="cls-19"><g id="Groupe_17-4" data-name="Groupe 17-4"><path id="Tracé_6-4" data-name="Tracé 6-4" class="cls-16" d="M125.7,453.88c-3.9-6.34-.91-14.9,6-16.95a32.85,32.85,0,0,1,7-1.21,20.07,20.07,0,0,1,9,1.12c5.57,2.23,8.28,8.86,6.1,14.68l-14,32.31Z"/><path id="Tracé_7-4" data-name="Tracé 7-4" class="cls-16" d="M125.7,453.88c-3.9-6.34-.91-14.9,6-16.95a32.85,32.85,0,0,1,7-1.21,20.07,20.07,0,0,1,9,1.12c5.57,2.23,8.28,8.86,6.1,14.68l-14,32.31Z"/><path id="Tracé_8-4" data-name="Tracé 8-4" class="cls-16" d="M174.45,479.6a10.59,10.59,0,0,1,14.72,2.78,10.44,10.44,0,0,1,1.51,3.35,38.23,38.23,0,0,1,1.23,7.36,23.14,23.14,0,0,1-1,9.46,10.64,10.64,0,0,1-13.46,6.72l-.49-.18-31-14.37Z"/><path id="Tracé_9-4" data-name="Tracé 9-4" class="cls-16" d="M174.45,479.6a10.59,10.59,0,0,1,14.72,2.78,10.44,10.44,0,0,1,1.51,3.35,38.23,38.23,0,0,1,1.23,7.36,23.14,23.14,0,0,1-1,9.46,10.64,10.64,0,0,1-13.46,6.72l-.49-.18-31-14.37Z"/><path id="Tracé_10-4" data-name="Tracé 10-4" class="cls-16" d="M105,509.24a10.6,10.6,0,0,1-16.09-6.52,37.54,37.54,0,0,1-1.07-7.38A23.09,23.09,0,0,1,89,485.9a10.61,10.61,0,0,1,13.58-6.4,5.38,5.38,0,0,1,.51.2l30.64,15.08Z"/><path id="Tracé_11-4" data-name="Tracé 11-4" class="cls-16" d="M105,509.24a10.6,10.6,0,0,1-16.09-6.52,37.54,37.54,0,0,1-1.07-7.38A23.09,23.09,0,0,1,89,485.9a10.61,10.61,0,0,1,13.58-6.4,5.38,5.38,0,0,1,.51.2l30.64,15.08Z"/><path id="Tracé_12-4" data-name="Tracé 12-4" class="cls-16" d="M154.51,532.82c3.8,6.4.7,14.91-6.25,16.86a33,33,0,0,1-7,1.1,20.16,20.16,0,0,1-9-1.26c-5.54-2.32-8.15-9-5.89-14.78l14.45-32.09Z"/><path id="Tracé_13-4" data-name="Tracé 13-4" class="cls-16" d="M154.51,532.82c3.8,6.4.7,14.91-6.25,16.86a33,33,0,0,1-7,1.1,20.16,20.16,0,0,1-9-1.26c-5.54-2.32-8.15-9-5.89-14.78l14.45-32.09Z"/><path id="Tracé_14-4" data-name="Tracé 14-4" class="cls-16" d="M109.35,476.72c-5.24-1-8.83-6.83-7.06-11.55a21.16,21.16,0,0,1,2.29-4.37,12.47,12.47,0,0,1,4.45-4.3c3.62-1.9,8.53-.09,10.91,3.93l12.38,23.37Z"/><path id="Tracé_15-4" data-name="Tracé 15-4" class="cls-16" d="M109.35,476.72c-5.24-1-8.83-6.83-7.06-11.55a21.16,21.16,0,0,1,2.29-4.37,12.47,12.47,0,0,1,4.45-4.3c3.62-1.9,8.53-.09,10.91,3.93l12.38,23.37Z"/><path id="Tracé_16-4" data-name="Tracé 16-4" class="cls-16" d="M158.33,462c1.93-5.21,8-7.83,12.14-5.13a20.55,20.55,0,0,1,3.67,3.17,12.91,12.91,0,0,1,3.2,5.38c1.11,4.09-1.49,8.8-5.7,10.51l-24.21,8.41Z"/><path id="Tracé_17-4" data-name="Tracé 17-4" class="cls-16" d="M158.33,462c1.93-5.21,8-7.83,12.14-5.13a20.55,20.55,0,0,1,3.67,3.17,12.91,12.91,0,0,1,3.2,5.38c1.11,4.09-1.49,8.8-5.7,10.51l-24.21,8.41Z"/><path id="Tracé_18-4" data-name="Tracé 18-4" class="cls-16" d="M122.67,528.05c-1.79,5.27-7.83,8.06-12,5.48a19.68,19.68,0,0,1-3.75-3.06,12.89,12.89,0,0,1-3.35-5.29c-1.21-4,1.26-8.84,5.43-10.66l24-9.12Z"/><path id="Tracé_19-4" data-name="Tracé 19-4" class="cls-16" d="M122.67,528.05c-1.79,5.27-7.83,8.06-12,5.48a19.68,19.68,0,0,1-3.75-3.06,12.89,12.89,0,0,1-3.35-5.29c-1.21-4,1.26-8.84,5.43-10.66l24-9.12Z"/><path id="Tracé_20-4" data-name="Tracé 20-4" class="cls-16" d="M172.13,513c5.24,1,8.81,6.86,7,11.58a21.93,21.93,0,0,1-2.31,4.36,12.44,12.44,0,0,1-4.47,4.27c-3.64,1.89-8.53.06-10.89-4l-12.29-23.43Z"/><path id="Tracé_21-4" data-name="Tracé 21-4" class="cls-16" d="M172.13,513c5.24,1,8.81,6.86,7,11.58a21.93,21.93,0,0,1-2.31,4.36,12.44,12.44,0,0,1-4.47,4.27c-3.64,1.89-8.53.06-10.89-4l-12.29-23.43Z"/></g></g></g><g id="Groupe_22" data-name="Groupe 22"><g class="cls-20"><g id="Groupe_17-5" data-name="Groupe 17-5"><path id="Tracé_6-5" data-name="Tracé 6-5" class="cls-16" d="M909.83,122.17c-4.82-8.19-1.13-19.25,7.43-21.91A39.52,39.52,0,0,1,926,98.7a23.82,23.82,0,0,1,11.15,1.45c6.9,2.88,10.24,11.45,7.54,19l-17.31,41.75Z"/><path id="Tracé_7-5" data-name="Tracé 7-5" class="cls-16" d="M909.83,122.17c-4.82-8.19-1.13-19.25,7.43-21.91A39.52,39.52,0,0,1,926,98.7a23.82,23.82,0,0,1,11.15,1.45c6.9,2.88,10.24,11.45,7.54,19l-17.31,41.75Z"/><path id="Tracé_8-5" data-name="Tracé 8-5" class="cls-16" d="M970.12,155.4c7.43-5.35,17.57-1.42,20.07,7.93a51.07,51.07,0,0,1,1.52,9.51,31,31,0,0,1-1.22,12.22c-2.57,7.58-10.37,11.32-17.26,8.44L934.94,175Z"/><path id="Tracé_9-5" data-name="Tracé 9-5" class="cls-16" d="M970.12,155.4c7.43-5.35,17.57-1.42,20.07,7.93a51.07,51.07,0,0,1,1.52,9.51,31,31,0,0,1-1.22,12.22c-2.57,7.58-10.37,11.32-17.26,8.44L934.94,175Z"/><path id="Tracé_10-5" data-name="Tracé 10-5" class="cls-16" d="M884.23,193.7c-7.55,5.17-17.6,1-19.91-8.42a51.19,51.19,0,0,1-1.32-9.54,31.09,31.09,0,0,1,1.46-12.19c2.72-7.51,10.6-11.06,17.43-8l37.9,19.5Z"/><path id="Tracé_11-5" data-name="Tracé 11-5" class="cls-16" d="M884.23,193.7c-7.55,5.17-17.6,1-19.91-8.42a51.19,51.19,0,0,1-1.32-9.54,31.09,31.09,0,0,1,1.46-12.19c2.72-7.51,10.6-11.06,17.43-8l37.9,19.5Z"/><path id="Tracé_12-5" data-name="Tracé 12-5" class="cls-16" d="M945.45,224.17c4.71,8.27.87,19.27-7.73,21.78a38.94,38.94,0,0,1-8.71,1.43,23.89,23.89,0,0,1-11.13-1.63c-6.86-3-10.09-11.62-7.29-19.1l17.87-41.46Z"/><path id="Tracé_13-5" data-name="Tracé 13-5" class="cls-16" d="M945.45,224.17c4.71,8.27.87,19.27-7.73,21.78a38.94,38.94,0,0,1-8.71,1.43,23.89,23.89,0,0,1-11.13-1.63c-6.86-3-10.09-11.62-7.29-19.1l17.87-41.46Z"/><path id="Tracé_14-5" data-name="Tracé 14-5" class="cls-16" d="M889.6,151.68c-6.48-1.32-10.92-8.82-8.73-14.92a28.17,28.17,0,0,1,2.83-5.65,15.67,15.67,0,0,1,5.51-5.55c4.48-2.46,10.55-.13,13.49,5.08L918,160.83Z"/><path id="Tracé_15-5" data-name="Tracé 15-5" class="cls-16" d="M889.6,151.68c-6.48-1.32-10.92-8.82-8.73-14.92a28.17,28.17,0,0,1,2.83-5.65,15.67,15.67,0,0,1,5.51-5.55c4.48-2.46,10.55-.13,13.49,5.08L918,160.83Z"/><path id="Tracé_16-5" data-name="Tracé 16-5" class="cls-16" d="M950.18,132.7c2.38-6.73,9.94-10.11,15-6.63a25.66,25.66,0,0,1,4.55,4.1,16.87,16.87,0,0,1,4,7c1.38,5.28-1.84,11.38-7.05,13.58L936.7,161.57Z"/><path id="Tracé_17-5" data-name="Tracé 17-5" class="cls-16" d="M950.18,132.7c2.38-6.73,9.94-10.11,15-6.63a25.66,25.66,0,0,1,4.55,4.1,16.87,16.87,0,0,1,4,7c1.38,5.28-1.84,11.38-7.05,13.58L936.7,161.57Z"/><path id="Tracé_18-5" data-name="Tracé 18-5" class="cls-16" d="M906.07,218c-2.21,6.79-9.67,10.41-14.83,7.07a24.75,24.75,0,0,1-4.65-4,16.79,16.79,0,0,1-4.13-6.83c-1.51-5.24,1.55-11.43,6.71-13.78l29.66-11.78Z"/><path id="Tracé_19-5" data-name="Tracé 19-5" class="cls-16" d="M906.07,218c-2.21,6.79-9.67,10.41-14.83,7.07a24.75,24.75,0,0,1-4.65-4,16.79,16.79,0,0,1-4.13-6.83c-1.51-5.24,1.55-11.43,6.71-13.78l29.66-11.78Z"/><path id="Tracé_20-5" data-name="Tracé 20-5" class="cls-16" d="M967.25,198.55c6.48,1.34,10.89,8.87,8.67,15a27.91,27.91,0,0,1-2.85,5.64,15.8,15.8,0,0,1-5.53,5.52c-4.49,2.43-10.55.07-13.47-5.14l-15.19-30.27Z"/><path id="Tracé_21-5" data-name="Tracé 21-5" class="cls-16" d="M967.25,198.55c6.48,1.34,10.89,8.87,8.67,15a27.91,27.91,0,0,1-2.85,5.64,15.8,15.8,0,0,1-5.53,5.52c-4.49,2.43-10.55.07-13.47-5.14l-15.19-30.27Z"/></g></g></g><g id="Groupe_23" data-name="Groupe 23"><g class="cls-21"><g id="Groupe_17-6" data-name="Groupe 17-6"><path id="Tracé_6-6" data-name="Tracé 6-6" class="cls-16" d="M997.12,24.71C992.3,16.52,996,5.46,1004.55,2.8a39.52,39.52,0,0,1,8.7-1.56,23.82,23.82,0,0,1,11.15,1.45c6.9,2.88,10.24,11.45,7.55,19l-17.32,41.75Z"/><path id="Tracé_7-6" data-name="Tracé 7-6" class="cls-16" d="M997.12,24.71C992.3,16.52,996,5.46,1004.55,2.8a39.52,39.52,0,0,1,8.7-1.56,23.82,23.82,0,0,1,11.15,1.45c6.9,2.88,10.24,11.45,7.55,19l-17.32,41.75Z"/><path id="Tracé_8-6" data-name="Tracé 8-6" class="cls-16" d="M1057.41,57.94c7.43-5.35,17.57-1.42,20.07,7.93a51.07,51.07,0,0,1,1.52,9.51,31,31,0,0,1-1.22,12.22c-2.57,7.58-10.37,11.32-17.26,8.44l-38.29-18.56Z"/><path id="Tracé_9-6" data-name="Tracé 9-6" class="cls-16" d="M1057.41,57.94c7.43-5.35,17.57-1.42,20.07,7.93a51.07,51.07,0,0,1,1.52,9.51,31,31,0,0,1-1.22,12.22c-2.57,7.58-10.37,11.32-17.26,8.44l-38.29-18.56Z"/><path id="Tracé_10-6" data-name="Tracé 10-6" class="cls-16" d="M971.52,96.24c-7.55,5.17-17.6,1-19.91-8.42a51.19,51.19,0,0,1-1.32-9.54,31.09,31.09,0,0,1,1.46-12.19c2.72-7.51,10.6-11.06,17.43-8l37.91,19.5Z"/><path id="Tracé_11-6" data-name="Tracé 11-6" class="cls-16" d="M971.52,96.24c-7.55,5.17-17.6,1-19.91-8.42a51.19,51.19,0,0,1-1.32-9.54,31.09,31.09,0,0,1,1.46-12.19c2.72-7.51,10.6-11.06,17.43-8l37.91,19.5Z"/><path id="Tracé_12-6" data-name="Tracé 12-6" class="cls-16" d="M1032.74,126.71c4.71,8.27.87,19.27-7.73,21.78a38.94,38.94,0,0,1-8.71,1.43,23.89,23.89,0,0,1-11.13-1.63c-6.86-3-10.09-11.62-7.29-19.1l17.87-41.46Z"/><path id="Tracé_13-6" data-name="Tracé 13-6" class="cls-16" d="M1032.74,126.71c4.71,8.27.87,19.27-7.73,21.78a38.94,38.94,0,0,1-8.71,1.43,23.89,23.89,0,0,1-11.13-1.63c-6.86-3-10.09-11.62-7.29-19.1l17.87-41.46Z"/><path id="Tracé_14-6" data-name="Tracé 14-6" class="cls-16" d="M976.89,54.22C970.41,52.9,966,45.4,968.16,39.3A28.17,28.17,0,0,1,971,33.65a15.67,15.67,0,0,1,5.51-5.55C981,25.64,987.05,28,990,33.18l15.31,30.19Z"/><path id="Tracé_15-6" data-name="Tracé 15-6" class="cls-16" d="M976.89,54.22C970.41,52.9,966,45.4,968.16,39.3A28.17,28.17,0,0,1,971,33.65a15.67,15.67,0,0,1,5.51-5.55C981,25.64,987.05,28,990,33.18l15.31,30.19Z"/><path id="Tracé_16-6" data-name="Tracé 16-6" class="cls-16" d="M1037.47,35.24c2.38-6.73,9.94-10.11,15-6.63a25.66,25.66,0,0,1,4.55,4.1,16.87,16.87,0,0,1,4,6.95c1.38,5.28-1.84,11.38-7,13.58L1024,64.11Z"/><path id="Tracé_17-6" data-name="Tracé 17-6" class="cls-16" d="M1037.47,35.24c2.38-6.73,9.94-10.11,15-6.63a25.66,25.66,0,0,1,4.55,4.1,16.87,16.87,0,0,1,4,6.95c1.38,5.28-1.84,11.38-7,13.58L1024,64.11Z"/><path id="Tracé_18-6" data-name="Tracé 18-6" class="cls-16" d="M993.36,120.56c-2.21,6.79-9.67,10.41-14.83,7.07a24.75,24.75,0,0,1-4.65-3.95,16.79,16.79,0,0,1-4.13-6.83c-1.51-5.24,1.55-11.43,6.71-13.78l29.66-11.78Z"/><path id="Tracé_19-6" data-name="Tracé 19-6" class="cls-16" d="M993.36,120.56c-2.21,6.79-9.67,10.41-14.83,7.07a24.75,24.75,0,0,1-4.65-3.95,16.79,16.79,0,0,1-4.13-6.83c-1.51-5.24,1.55-11.43,6.71-13.78l29.66-11.78Z"/><path id="Tracé_20-6" data-name="Tracé 20-6" class="cls-16" d="M1054.54,101.09c6.48,1.34,10.89,8.87,8.67,15a27.91,27.91,0,0,1-2.85,5.64,15.8,15.8,0,0,1-5.53,5.52c-4.49,2.43-10.55.07-13.47-5.14L1026.17,91.8Z"/><path id="Tracé_21-6" data-name="Tracé 21-6" class="cls-16" d="M1054.54,101.09c6.48,1.34,10.89,8.87,8.67,15a27.91,27.91,0,0,1-2.85,5.64,15.8,15.8,0,0,1-5.53,5.52c-4.49,2.43-10.55.07-13.47-5.14L1026.17,91.8Z"/></g></g></g><g id="Groupe_24" data-name="Groupe 24"><g class="cls-22"><g id="Groupe_17-7" data-name="Groupe 17-7"><path id="Tracé_6-7" data-name="Tracé 6-7" class="cls-16" d="M1083.82,125.56c-4.81-8.19-1.12-19.25,7.44-21.91a39.54,39.54,0,0,1,8.69-1.56,23.86,23.86,0,0,1,11.16,1.45c6.89,2.88,10.24,11.45,7.54,19l-17.31,41.75Z"/><path id="Tracé_7-7" data-name="Tracé 7-7" class="cls-16" d="M1083.82,125.56c-4.81-8.19-1.12-19.25,7.44-21.91a39.54,39.54,0,0,1,8.69-1.56,23.86,23.86,0,0,1,11.16,1.45c6.89,2.88,10.24,11.45,7.54,19l-17.31,41.75Z"/><path id="Tracé_8-7" data-name="Tracé 8-7" class="cls-16" d="M1144.11,158.79c7.44-5.35,17.58-1.42,20.08,7.93a51.06,51.06,0,0,1,1.51,9.51,31,31,0,0,1-1.21,12.22c-2.57,7.58-10.37,11.32-17.27,8.44l-38.28-18.56Z"/><path id="Tracé_9-7" data-name="Tracé 9-7" class="cls-16" d="M1144.11,158.79c7.44-5.35,17.58-1.42,20.08,7.93a51.06,51.06,0,0,1,1.51,9.51,31,31,0,0,1-1.21,12.22c-2.57,7.58-10.37,11.32-17.27,8.44l-38.28-18.56Z"/><path id="Tracé_10-7" data-name="Tracé 10-7" class="cls-16" d="M1058.22,197.09c-7.54,5.17-17.6,1-19.91-8.42a51.19,51.19,0,0,1-1.32-9.54,31.09,31.09,0,0,1,1.47-12.19c2.72-7.51,10.59-11.06,17.43-8l37.9,19.5Z"/><path id="Tracé_11-7" data-name="Tracé 11-7" class="cls-16" d="M1058.22,197.09c-7.54,5.17-17.6,1-19.91-8.42a51.19,51.19,0,0,1-1.32-9.54,31.09,31.09,0,0,1,1.47-12.19c2.72-7.51,10.59-11.06,17.43-8l37.9,19.5Z"/><path id="Tracé_12-7" data-name="Tracé 12-7" class="cls-16" d="M1119.45,227.56c4.71,8.27.87,19.27-7.73,21.78a39.61,39.61,0,0,1-8.72,1.43,23.93,23.93,0,0,1-11.13-1.63c-6.85-3-10.08-11.62-7.29-19.1l17.88-41.46Z"/><path id="Tracé_13-7" data-name="Tracé 13-7" class="cls-16" d="M1119.45,227.56c4.71,8.27.87,19.27-7.73,21.78a39.61,39.61,0,0,1-8.72,1.43,23.93,23.93,0,0,1-11.13-1.63c-6.85-3-10.08-11.62-7.29-19.1l17.88-41.46Z"/><path id="Tracé_14-7" data-name="Tracé 14-7" class="cls-16" d="M1063.59,155.07c-6.48-1.32-10.91-8.82-8.72-14.92a27.15,27.15,0,0,1,2.83-5.65,15.72,15.72,0,0,1,5.5-5.55c4.49-2.46,10.55-.13,13.49,5.08L1092,164.22Z"/><path id="Tracé_15-7" data-name="Tracé 15-7" class="cls-16" d="M1063.59,155.07c-6.48-1.32-10.91-8.82-8.72-14.92a27.15,27.15,0,0,1,2.83-5.65,15.72,15.72,0,0,1,5.5-5.55c4.49-2.46,10.55-.13,13.49,5.08L1092,164.22Z"/><path id="Tracé_16-7" data-name="Tracé 16-7" class="cls-16" d="M1124.18,136.09c2.38-6.73,9.93-10.11,15-6.63a25.25,25.25,0,0,1,4.54,4.1,16.78,16.78,0,0,1,4,6.95c1.37,5.28-1.84,11.38-7.06,13.58L1110.69,165Z"/><path id="Tracé_17-7" data-name="Tracé 17-7" class="cls-16" d="M1124.18,136.09c2.38-6.73,9.93-10.11,15-6.63a25.25,25.25,0,0,1,4.54,4.1,16.78,16.78,0,0,1,4,6.95c1.37,5.28-1.84,11.38-7.06,13.58L1110.69,165Z"/><path id="Tracé_18-7" data-name="Tracé 18-7" class="cls-16" d="M1080.07,221.41c-2.21,6.79-9.68,10.41-14.84,7.07a25,25,0,0,1-4.64-3.95,16.82,16.82,0,0,1-4.14-6.83c-1.5-5.24,1.56-11.43,6.72-13.78l29.65-11.78Z"/><path id="Tracé_19-7" data-name="Tracé 19-7" class="cls-16" d="M1080.07,221.41c-2.21,6.79-9.68,10.41-14.84,7.07a25,25,0,0,1-4.64-3.95,16.82,16.82,0,0,1-4.14-6.83c-1.5-5.24,1.56-11.43,6.72-13.78l29.65-11.78Z"/><path id="Tracé_20-7" data-name="Tracé 20-7" class="cls-16" d="M1141.25,201.94c6.47,1.34,10.88,8.87,8.67,15a28.43,28.43,0,0,1-2.85,5.64,15.89,15.89,0,0,1-5.53,5.52c-4.5,2.43-10.55.07-13.47-5.14l-15.19-30.27Z"/><path id="Tracé_21-7" data-name="Tracé 21-7" class="cls-16" d="M1141.25,201.94c6.47,1.34,10.88,8.87,8.67,15a28.43,28.43,0,0,1-2.85,5.64,15.89,15.89,0,0,1-5.53,5.52c-4.5,2.43-10.55.07-13.47-5.14l-15.19-30.27Z"/></g></g></g><g id="Groupe_25" data-name="Groupe 25"><g class="cls-23"><g id="Groupe_17-8" data-name="Groupe 17-8"><path id="Tracé_6-8" data-name="Tracé 6-8" class="cls-16" d="M31.82,534.09c-3.2-5.21-.75-12.24,4.94-13.92a27.56,27.56,0,0,1,5.77-1,16.68,16.68,0,0,1,7.41.92,9.43,9.43,0,0,1,5,12.06l-11.5,26.53Z"/><path id="Tracé_7-8" data-name="Tracé 7-8" class="cls-16" d="M31.82,534.09c-3.2-5.21-.75-12.24,4.94-13.92a27.56,27.56,0,0,1,5.77-1,16.68,16.68,0,0,1,7.41.92,9.43,9.43,0,0,1,5,12.06l-11.5,26.53Z"/><path id="Tracé_8-8" data-name="Tracé 8-8" class="cls-16" d="M71.85,555.2a8.69,8.69,0,0,1,12.08,2.29,8.51,8.51,0,0,1,1.25,2.76,30.72,30.72,0,0,1,1,6,19,19,0,0,1-.8,7.77,8.73,8.73,0,0,1-11,5.51l-.41-.15L48.49,567.63Z"/><path id="Tracé_9-8" data-name="Tracé 9-8" class="cls-16" d="M71.85,555.2a8.69,8.69,0,0,1,12.08,2.29,8.51,8.51,0,0,1,1.25,2.76,30.72,30.72,0,0,1,1,6,19,19,0,0,1-.8,7.77,8.73,8.73,0,0,1-11,5.51l-.41-.15L48.49,567.63Z"/><path id="Tracé_10-8" data-name="Tracé 10-8" class="cls-16" d="M14.82,579.55A8.72,8.72,0,0,1,1.6,574.19a30.86,30.86,0,0,1-.87-6.06,18.9,18.9,0,0,1,1-7.75,8.71,8.71,0,0,1,11.15-5.25l.42.16,25.16,12.39Z"/><path id="Tracé_11-8" data-name="Tracé 11-8" class="cls-16" d="M14.82,579.55A8.72,8.72,0,0,1,1.6,574.19a30.86,30.86,0,0,1-.87-6.06,18.9,18.9,0,0,1,1-7.75,8.71,8.71,0,0,1,11.15-5.25l.42.16,25.16,12.39Z"/><path id="Tracé_12-8" data-name="Tracé 12-8" class="cls-16" d="M55.48,598.91c3.12,5.26.57,12.25-5.14,13.84a27,27,0,0,1-5.78.91,16.52,16.52,0,0,1-7.4-1,9.43,9.43,0,0,1-4.84-12.13l11.87-26.35Z"/><path id="Tracé_13-8" data-name="Tracé 13-8" class="cls-16" d="M55.48,598.91c3.12,5.26.57,12.25-5.14,13.84a27,27,0,0,1-5.78.91,16.52,16.52,0,0,1-7.4-1,9.43,9.43,0,0,1-4.84-12.13l11.87-26.35Z"/><path id="Tracé_14-8" data-name="Tracé 14-8" class="cls-16" d="M18.39,552.84c-4.3-.84-7.25-5.6-5.8-9.48a18.06,18.06,0,0,1,1.88-3.59,10.32,10.32,0,0,1,3.66-3.53c3-1.56,7-.08,9,3.23l10.16,19.19Z"/><path id="Tracé_15-8" data-name="Tracé 15-8" class="cls-16" d="M18.39,552.84c-4.3-.84-7.25-5.6-5.8-9.48a18.06,18.06,0,0,1,1.88-3.59,10.32,10.32,0,0,1,3.66-3.53c3-1.56,7-.08,9,3.23l10.16,19.19Z"/><path id="Tracé_16-8" data-name="Tracé 16-8" class="cls-16" d="M58.61,540.78c1.59-4.28,6.6-6.43,10-4.21a17,17,0,0,1,3,2.6,10.65,10.65,0,0,1,2.62,4.42c.91,3.36-1.22,7.23-4.68,8.63l-19.88,6.91Z"/><path id="Tracé_17-8" data-name="Tracé 17-8" class="cls-16" d="M58.61,540.78c1.59-4.28,6.6-6.43,10-4.21a17,17,0,0,1,3,2.6,10.65,10.65,0,0,1,2.62,4.42c.91,3.36-1.22,7.23-4.68,8.63l-19.88,6.91Z"/><path id="Tracé_18-8" data-name="Tracé 18-8" class="cls-16" d="M29.33,595c-1.47,4.32-6.43,6.61-9.85,4.5A17,17,0,0,1,16.39,597a10.6,10.6,0,0,1-2.74-4.34c-1-3.33,1-7.26,4.46-8.76L37.8,576.4Z"/><path id="Tracé_19-8" data-name="Tracé 19-8" class="cls-16" d="M29.33,595c-1.47,4.32-6.43,6.61-9.85,4.5A17,17,0,0,1,16.39,597a10.6,10.6,0,0,1-2.74-4.34c-1-3.33,1-7.26,4.46-8.76L37.8,576.4Z"/><path id="Tracé_20-8" data-name="Tracé 20-8" class="cls-16" d="M70,582.63c4.3.85,7.23,5.63,5.76,9.5a17.37,17.37,0,0,1-1.9,3.59,10.29,10.29,0,0,1-3.67,3.51c-3,1.54-7,0-8.94-3.27L51.11,576.72Z"/><path id="Tracé_21-8" data-name="Tracé 21-8" class="cls-16" d="M70,582.63c4.3.85,7.23,5.63,5.76,9.5a17.37,17.37,0,0,1-1.9,3.59,10.29,10.29,0,0,1-3.67,3.51c-3,1.54-7,0-8.94-3.27L51.11,576.72Z"/></g></g></g></svg>