<svg id="Calque_1" data-name="Calque 1" xmlns="http://www.w3.org/2000/svg" viewBox="0 0 967.96 1065.13"><defs><style>.cls-1,.cls-2{fill:#fff;}.cls-2{stroke:#fff;stroke-miterlimit:10;}</style></defs><path class="cls-1" d="M210.93,549.3c-16.39,41.1-54.31,88.76-102.77,61.56C76.45,593.48,54.92,561.2,46.5,526.47,34.39,477.14,43.37,425.2,59.56,378c6.28-18.49,14.52-37.1,22.5-54.93C91,303,100.69,283,110.79,263.45c.48-1,.95-2,1.09-2.4.09-.16,0-.32-.11.92a7.27,7.27,0,0,0,.5,3,7.06,7.06,0,0,0,1.92,2.79C101,259,95,238,93.44,223c-2.94-32.12,9.64-66.56,36.67-85.4,17.74-12.56,41.17-15.78,62-11.78,15.91,2.77,32.12,8.58,42.71,21.4,17.62,21,16.16,51.88,5.45,75.54-8.13,18.07-25.82,38.39-47.88,33.48-13.73-2.91-30.44-11.17-36.51-24.47a17.29,17.29,0,0,1,.2-14.5,17.42,17.42,0,0,0-.94,7.13c1.67,15.8,24.18,25.09,38,26.73,19.2,2.62,32.4-15.93,38.47-32,8.41-22.12,8.34-51.66-11.41-67.4-8.59-6.83-19.86-9.4-30.52-11-38.72-6-68.43,16.46-76.42,54.21-3.19,14.94-2.57,30.8,3.27,44.91,2.08,5,4.35,10,8.94,12.82A11.83,11.83,0,0,1,130.62,263c-.39,4.1-1.56,5.93-2.82,8.75-5.53,11-11,21.69-16.27,32.74C103.3,321.57,95,339.94,87.4,357.36,65.41,409.08,49.45,467,60.85,523.12c6.49,31.82,24.56,61.73,52.41,79.13,41.86,27.39,79.56-18.59,97.67-53Z"/><path class="cls-1" d="M264,165.2c2.77-10.38,12.36-17.68,23.36-14.8,9.88,2.6,17.49,9.71,24.19,17,11.82,13.4,23.2,37.82,14.72,55.3-3,6.15-7.83,11.86-14.55,14-6.45,2.23-13.64-.42-18.39-4.81a26.36,26.36,0,0,0,8.71,2.46c8.81.92,15.28-6.51,17.86-14.35,5.34-14.41-5.85-35.86-15-47-11.93-14-26.5-27.57-40.91-7.84Z"/><path class="cls-1" d="M255.8,241.12c11.33,2.37,21.33-7.94,24.68-17.85,3.69-10.39,1.66-21.74-2.72-31.62-8.5-19.27-25-34.89-45.16-41-1.48-.44-4.18-.94-5.63-1.24A278.69,278.69,0,0,1,242.17,81C254.68,46.1,277.82,8.8,316.57,0a228.41,228.41,0,0,1,24.18,9.29c36.68,16.61,71.72,40.5,94.09,74.6a123.69,123.69,0,0,1,18.23,44.42c-1.23-3.81-2.51-7.58-4-11.25a137.48,137.48,0,0,0-17.66-30.74c-27.73-35.93-68.79-59.2-111-74.18-1.82-.62-3.74-1.25-5.46-1.75l2.77,0c-27,7.17-45.35,30.8-57.17,54.94-12.31,25.34-19.9,53-24.12,80.84l-3.51-4.93a58.51,58.51,0,0,1,8.78,3.27,80,80,0,0,1,41.45,44.92c4.16,11.06,5.36,24,.44,35-4.46,10.22-16.11,20.48-27.77,16.62Z"/><path class="cls-1" d="M284.57,241.74a120.13,120.13,0,0,1,.34,17.7c-.54,8.95-1.79,18.15-5.55,26.51a27.38,27.38,0,0,1-7.34,9.91c-1.64,1.3-3.33,2.68-4.86,4.11-10.4,9.76-19.47,21-27.65,32.7a141.94,141.94,0,0,0-12.81,21.89c-1.15,2.48-2.06,5.2-3,7.79-1.92,5.48-3.74,11-5.39,16.46-3.27,10.81-5.72,21.84-5.74,33.09.19,29,16.29,54.78,30,79.62-22.71-27.53-44.35-60.28-37.67-97.79,2.11-13.22,6.21-25.53,10.47-37.79.69-1.84,1.42-3.7,2.24-5.47,9.61-20.35,27.4-41.85,44.81-56.06,1.71-1.38,3.67-2.77,5.51-4a21.14,21.14,0,0,0,6.22-7.13c6.87-12.57,8.85-27.4,10.4-41.54Z"/><path class="cls-1" d="M279,154.75a476.32,476.32,0,0,1,9.74-77.34c4.12-19,9.49-37.82,18-55.32A124.5,124.5,0,0,1,316.41,5.4c-9.62,16.68-14.78,35.43-18.36,54.22a399.06,399.06,0,0,0-6.07,57c-.48,12.59-.59,25.5,0,38l-13,.15Z"/><path class="cls-1" d="M342.48,160.41c67.11-40,164.1-56.38,236.37-21.42,3.57,1.81,7.58,3.87,11,5.92,2.35,1.49,4.86,2.59,6.75,4.91a9.57,9.57,0,0,0-1.54-.23,12,12,0,0,1-1.63-.31l-1-.36c-2.33-.92-5.38-2-7.69-2.82-78.9-27.71-165-11.6-242.31,14.31Z"/><path class="cls-1" d="M668.61,40.26c-33.5,1.7-72.54,41.38-94.51,65.14-8.67,9.57-17.16,19.52-25,29.73l-12.25-10.29c2.39-2.55,4.68-4.89,7.06-7.28,27.56-27.39,84.47-79.36,124.72-77.3Z"/><path class="cls-1" d="M588,146.17c13.4-28.9,44.63-91.35,73.61-104.17A21.91,21.91,0,0,1,670,40.25a21.34,21.34,0,0,0-8,2.49c-15.89,9.17-27.14,30.13-35.66,46a465.52,465.52,0,0,0-20.45,46.36c-2,5.24-4,10.58-5.74,15.79L588,146.17Z"/><path class="cls-1" d="M635.13,324.13c-10.4,55.57-47.34,136.29-110.75,143.2-24.84,2.39-51.16.19-73.29-12.22-10.85-6.2-21-15-26.45-26.42,7.39,9.67,17.95,16.47,29.05,21.13,21.9,9,46.21,9.27,69.38,6.25a82.72,82.72,0,0,0,9.39-1.94c50.88-14.51,83.78-84.28,102.67-130Z"/><path class="cls-1" d="M617,370.91c-11.68-11.49-22.52-23.6-34.66-34.47a49.91,49.91,0,0,0-8.41-6.1,3.57,3.57,0,0,1,2-6.61c.28,0,2-.08,2.36-.09,8.61-.34,17.88-.55,26.48-.54,10.09,0,20.19.22,30.32,1-15,2.5-30.07,3.82-45.21,4.83-3.49.22-9.78.58-13.21.73l-.71,0a2.45,2.45,0,0,0,1-4.54l-.11-.06s-.07,0,0,0l1.45.85c4,2.32,7.45,5.67,10.73,8.85a204.72,204.72,0,0,1,28,36.1Z"/><path class="cls-1" d="M329,326.88c25.84-8.91,60.07-3,81.17,14.45-6.9-1.93-13.37-4.22-20.06-5.81-20-5.37-40.37-7.59-61.11-8.64Z"/><path class="cls-1" d="M285.45,393.54c25-15.77,58.18-19.49,86.58-12a95.46,95.46,0,0,1,27.16,12c-15.84-4.71-31.53-7.89-47.89-8.6a205.53,205.53,0,0,0-65.85,8.6Z"/><path class="cls-1" d="M628.26,301.81c-.94-22,5.88-53.6,32-57,9.88-1,20.37.33,28.45,6.74,5.15,4.2,8.4,9.42,11,15,3.23,7.95,3.5,16.79,2.73,25.15a66,66,0,0,1-2.92,14A32.31,32.31,0,0,1,678.25,325c-4.67,1.35-9.51.65-14.24.18a85.43,85.43,0,0,1-26.41-7.52,98.62,98.62,0,0,0,26.63,4.78c2.24.09,4.48.09,6.72,0,6.42-.18,12.16-3.72,16.58-8.16,6.45-6.2,7.89-14.65,8.53-23.16.46-7.41.14-15-2.71-21.92-2.22-4.6-5.11-9.06-9-12.27-6.3-5.12-15.46-6.31-23.41-5.84-22.79,2-30,31.8-32.65,50.69Z"/><path class="cls-1" d="M657.1,246.14c9.74-.78,18.39,7.5,23,15.38,9.61,16.69,7.86,39.81-5.95,53.73-9.67-12.15-13.84-27.26-15.39-42.32-1.05-8.95,0-17.71-1.62-26.79Z"/><path class="cls-1" d="M439.08,247.75c9.46-9.31,21.25-16.91,34.32-20.33,27.53-6.91,44.17,12.93,51,37.17,8.11,26.27,2.18,50.16-28.68,52.93-13.4,1.06-26.83-1.35-39.42-5.77a147.68,147.68,0,0,0,26,1.92c32.56-.73,44-15.32,34.43-46.8-4.51-15.26-13.07-31.79-30.11-34.29-16.8-2.24-33.69,6.36-47.55,15.17Z"/><path class="cls-1" d="M472.07,229.14c5.21-1.9,10.63-.74,15.58,1.2,10.31,4.47,17.77,14.15,21,24.77a43.67,43.67,0,0,1-4.92,36.58,41.52,41.52,0,0,1-9.06,9.74,49.89,49.89,0,0,1-4.64-5.19c-10.43-13.34-16.39-29.17-16.54-46-.24-7.23.12-13.84-1.39-21.15Z"/><path class="cls-1" d="M706,229.14c10.38-36.78,12.28-76.2,3.71-113.45-6.4-27.35-18.85-52.45-35.2-75.44a159.83,159.83,0,0,1,39.21,64.59c12.53,39.69,10.14,86.61-7.72,124.3Z"/><path class="cls-1" d="M605.17,395.12c16.11,16.37,36.19,39.09,60.57,36.3,9.43-1.22,18.08-6.28,25.86-12.06,4.15-3,8.14-6.47,12.32-9.93a61.51,61.51,0,0,1-20.1,25.91c-32.89,23.5-68.89-7.93-78.65-40.22Z"/><path class="cls-1" d="M710.12,330.32c12.68,6.54,23,17.18,30.65,29.15,13,20.59,16.45,46.21,12.42,70-6.65,37.39-27.91,71.13-53.69,98.29,9.63-16,19-32,26.8-48.55.87-1.66,2-4.51,2.8-6.26l2.75-6.26c1.39-3.83,3.56-8.94,4.73-12.76s3-9.16,3.87-13a134.21,134.21,0,0,0,4.38-26.43,100.93,100.93,0,0,0-34.71-84.2Z"/><path class="cls-1" d="M472.07,663.8c-21.78-12.19-41.94-32.51-44.79-58.47-1.79-17.49,5.38-35,16.46-48.26,14.08-17,36-25.38,57.47-27.21,35.94-4.13,71.13,20.11,77.86,56.07,3.49,21.27-2,44.11-15.34,61a52.89,52.89,0,0,1-44.85,19.74c12.42-.59,24.46-4.88,33.66-13.16,15-13.59,21.65-34.67,21.29-54.52-.26-23.87-15.73-46.09-37.39-55.71-14.47-6.75-31-7.12-46.43-3.91s-30.48,10.23-41,22.24c-10.31,11.84-17.44,27.36-16.55,43.29,1.55,24.77,20.1,45.13,39.61,58.87Z"/><circle class="cls-2" cx="483.73" cy="559.82" r="2.89"/><circle class="cls-2" cx="544.99" cy="613.35" r="4.42"/><circle class="cls-2" cx="553.64" cy="568.7" r="4.22"/><circle class="cls-2" cx="479.4" cy="608.92" r="5.77"/><path class="cls-1" d="M483.61,558.7c26.47-8.86,58-1.2,62,30.26a65.29,65.29,0,0,1-2,25.74c0-2.15,0-4.28,0-6.4a121.31,121.31,0,0,0-.83-12.56c-3.89-33.27-30-39.51-59.22-37Z"/><path class="cls-1" d="M479.4,608.92c2-11.69,9.79-21.94,19.29-28.82,9.68-6.94,21.58-10.57,33.3-11.42a81.92,81.92,0,0,1,23.2,1.57c-15.1.84-30.29,2.44-44.1,8.54-13.67,5.91-25.35,16.52-31.69,30.13Z"/><path class="cls-1" d="M273.3,514.68c42.7,13.54,85.95,26,129.93,34.42,14.44,2.62,29.23,5,43.82,5.1l-.23,9A187.26,187.26,0,0,1,424,560.38c-51.66-10-101.46-27.57-150.71-45.7Z"/><path class="cls-1" d="M565.65,560.62c31.59-2,63.3-6.24,93.79-15-22.58,7.87-46.06,13-69.65,16.77-7.89,1.25-15.77,2.35-23.78,3.21l-.36-5Z"/><path class="cls-1" d="M104.11,740.91c29.7-25.75,70.28-41.76,110-34.94,31.41,5.31,58.28,25.66,77.42,50.39,38.21,47.78,60,112.66,43.77,173.17a114.23,114.23,0,0,1-9.25,24.36,108.85,108.85,0,0,0,3.5-12.43c6.56-29,5.3-59.62-2-88.25a244.52,244.52,0,0,0-62.11-108.06c-47.29-46.07-109.29-37.92-161.34-4.24Z"/><path class="cls-1" d="M679.37,545.78c46.59-2.73,59.51,48.12,63,85.25,1.67,19.49,2.7,39.07,1.27,58.6-4.09,49.46-30.78,93.47-59.9,132.23C667,845.2,648.25,867.6,637,894.22a234,234,0,0,0-16.05,55.29A189.27,189.27,0,0,1,638.59,879c10.82-21.86,25.5-41.45,39.4-61.34,27.69-38.29,53.59-80.81,57.86-128.77.91-9.49.71-19,.65-28.57s-.34-19.2-1-28.74c-2.62-36.1-11.33-84.16-56.09-85.84Z"/><path class="cls-1" d="M703.33,789.7c17.15,19.48,28.94,43.46,35.25,68.53a156.22,156.22,0,0,1,2.11,63.32c-3.62,20.7-11.38,40.67-21.63,58.83,13.68-27.92,21.21-59.08,18.23-90.15-2.82-30.41-15.3-59.69-34.53-83.3a105.51,105.51,0,0,0-7.87-8.71l8.44-8.52Z"/><path class="cls-1" d="M671.23,1013.46c-.41,17.25-6.43,37.75-23.46,45.54-8.54,3.74-17.94,3.59-27.07,2.44-9.9-1.36-20.79-7.55-19.75-19.21l2.66-17.88,3.08,17.84a14,14,0,0,1-2.36,9.89c-5.53,7.77-15.49,9.41-24.23,10-10.61,1-21.91-2.52-27.72-12a20.89,20.89,0,0,1-2.16-4.43l6.7-.65a21.21,21.21,0,0,1-6.11,13c-16.52,15.88-47.81,2.94-58.32-14.38-4.76-7.42-6.73-16.25-6.61-25-1.21-17.85,4.59-34.25,18.77-45.55,6.37-5.37,14.33-8.67,21.86-12s15.12-6.4,22.91-9c-11,5.31-21.87,11.17-32.5,17.13-18.56,10.68-27.33,28-25.11,49.19a46,46,0,0,0,1.49,11.46c3.82,15,18,25,32.73,28,8.36,1.56,18.81-.63,22.74-8.75a15.76,15.76,0,0,0,1.32-4.79l1.65-14.55,5,13.91c2.44,6.49,8.78,10.76,15.57,11.64,8.88,1,28,.34,28.62-11.45v-.34c0-.08,0-.25,0-.19l5.73,0a7.65,7.65,0,0,0,.07,2.28c1.2,6.9,8.33,9.81,14.81,11.11,8,1.31,17,2,24.76-1,16.41-6.65,22.87-25.81,24.9-42.13Z"/><path class="cls-1" d="M164.18,1008.48c1.58,13.2,5.29,26.89,13.73,37.34,9.27,11.45,21.7,12.39,35.22,9.93,7.58-1.41,15.27-6.27,14.44-14.56h6.31a10.33,10.33,0,0,0,.28,2.85c2.44,8.37,12.15,10,20.15,10.42,4.69.3,9.74-.09,13.82-2.47a18.23,18.23,0,0,0,8-9.79l.07-.23,5.71-18.7,2.46,19.37c.43,3.71,1.84,7,4.77,9.22,6.17,4.72,16,4.62,23.74,3.79,20.39-2.69,29.3-24.79,32.46-42.78,3.22-15.44.46-32.11-9.4-44.66-17.5-21.85-52.49-28.45-79.2-29.24a205.71,205.71,0,0,0-51.63,5.11,188.2,188.2,0,0,1,69.26-7.64,124.78,124.78,0,0,1,29.12,3.88c9.69,2.57,19.29,6.24,27.43,12.36,15.9,11.38,24.8,31.07,24,50.5-1.05,19.08-7.36,44.47-26,56.06a38.63,38.63,0,0,1-18.73,5.48c-9.1.45-18.94-.23-26.47-6.14-4.57-3.55-7.23-9.51-7.66-15.1l8.17.67a19.58,19.58,0,0,1-.95,2.5,26.22,26.22,0,0,1-20.45,15.25c-8.93.86-18.37-.13-26.35-4.65-5.78-3.29-10-10.23-9-17.09l3.29-21.55,3,21.55c1.09,12-9.06,19.17-19.82,20.62-9.49,1.19-19.46,1.17-27.92-3.64-16.32-9.52-21.38-31.09-22-48.67Z"/><path class="cls-1" d="M683.87,962.38c24.75,1.65,51.56,18,48.92,45.89a51.17,51.17,0,0,1-11.19,28.41,48,48,0,0,1-29.19,16.8,62.21,62.21,0,0,0,24.05-20.64,53.23,53.23,0,0,0,8.38-25.23c2.38-24-21.32-37.88-41-45.23Z"/><path class="cls-1" d="M651.21,993.76c11,1.37,20.38,11.65,21.56,22.82a38.85,38.85,0,0,1-6.67,27,38,38,0,0,1-14.89,12.93c8.36-10.2,14.41-21.72,14.95-34.84.48-11.68-4.93-21.24-14.95-27.9Z"/><path class="cls-1" d="M88.94,650.19C77.77,658.83,69.12,670.25,61.4,682,38.89,717.47,26.9,758.63,19.3,799.7c-3.78,21.14-6.89,43.75-6.75,65.26-.27,41.07,10.83,84.46,40.86,114a92.65,92.65,0,0,0,19,14.82,65.67,65.67,0,0,1-11.11-5.21c-25.32-14.78-43.06-40.4-52.1-68C-.11,892.92-1.45,862.92,1.2,834,7.2,781.12,21.13,727,53,683.51c9.94-13,21.42-25.56,35.95-33.32Z"/><path class="cls-1" d="M296.23,539.69c41.17,24.54,86.17,45.8,134,52.2l-1.1,7.92c-48.35-9.14-92.5-32.92-132.92-60.12Z"/><path class="cls-1" d="M576.08,601.87c28-6.94,55.87-16.82,80.61-32a209.12,209.12,0,0,1-18.34,12,321.32,321.32,0,0,1-60.47,26.73l-1.8-6.76Z"/><path class="cls-1" d="M724.74,823c41,16.85,92.39,20.26,103.26-33.41,6.74-33.53-2.2-69.36-6.67-102.76-4.26-25.73-6-54.64,1.83-79.91,5.61-17.12,13.18-33.77,24.86-47.75,23.25-27.43,61.7-46.23,98.34-37.2,15.11,4.63,24.58,21.61,20.75,36.92a30.5,30.5,0,0,1-7.18,13.48c-6.16,7.11-14.23,11.31-22,16.09a59.74,59.74,0,0,0-17.37,16.88c-9.21,13.88-12.46,31.12-13.73,47.67-1.4,17,1.24,34.08,6.07,50.42,4.88,16.71,10.84,33.52,13.31,50.94A172.06,172.06,0,0,1,928,780.82c-.27,26.08-4.47,53.59-19.65,75.39,17.26-28.19,18.56-69.12,12.94-101-3.7-21.52-13-41.45-18.4-62.63a140.81,140.81,0,0,1-2.73-53.36c2.7-23.07,12.48-45.38,32.66-58.32,6.92-4.49,14.66-8.42,20-14.77,7.56-8.22,7.13-21.23-.55-29.23-5.2-5.77-13.17-7-20.57-7.33-28.8-1-57.8,14.16-76.21,35.89-10.76,12.7-17.86,28.33-23.39,44.48-5.31,15.87-5.89,33.33-5.19,50.09a239.54,239.54,0,0,0,2.67,25.64c2,15,4.91,37.22,6.47,52.12,2.41,29.3,2,67.51-22.71,87.79C788,845.24,751.14,835.69,724.74,823Z"/></svg>